<?xml version="1.0" standalone="no"?>
<!DOCTYPE svg PUBLIC "-//W3C//DTD SVG 1.1//EN" "http://www.w3.org/Graphics/SVG/1.1/DTD/svg11.dtd" >
<svg xmlns="http://www.w3.org/2000/svg" xmlns:xlink="http://www.w3.org/1999/xlink" version="1.1">
<metadata>
Created by FontForge 20201107 at Wed Feb 24 19:44:26 2021
 By Jimmy Wärting
</metadata>
<defs>
<font id="BogamRegular" horiz-adv-x="268" >
  <font-face 
    font-family="Bogam"
    font-weight="400"
    font-stretch="normal"
    units-per-em="1000"
    panose-1="0 0 0 0 0 0 0 0 0 0"
    ascent="800"
    descent="-200"
    x-height="417.63"
    cap-height="654.521"
    bbox="-221.999 -259.075 966.289 854.31"
    underline-thickness="0"
    underline-position="0"
    unicode-range="U+000A-F019"
  />
<missing-glyph horiz-adv-x="527" 
d="M50 700h427v-700h-427v700zM78 680l185 -309l186 309h-371zM251 350l-180 300v-601zM264 329l-185 -308h370zM276 350l181 -303v605z" />
    <glyph glyph-name=".notdef" horiz-adv-x="527" 
d="M50 700h427v-700h-427v700zM78 680l185 -309l186 309h-371zM251 350l-180 300v-601zM264 329l-185 -308h370zM276 350l181 -303v605z" />
    <glyph glyph-name=".null" horiz-adv-x="0" 
 />
    <glyph glyph-name=".null" horiz-adv-x="0" 
 />
    <glyph glyph-name="controlLF" unicode="&#xa;" horiz-adv-x="0" 
 />
    <glyph glyph-name="controlCR" unicode="&#xd;" horiz-adv-x="0" 
 />
    <glyph glyph-name="space" unicode=" " horiz-adv-x="284" 
 />
    <glyph glyph-name="exclam" unicode="!" horiz-adv-x="272" 
d="M14.501 654.895h242.081v-234.738l-46.4736 -242.067h-149.134l-46.4736 242.067v234.738zM135.538 -12.2441c-71.5391 0 -129.538 36.2471 -129.538 80.9561s57.999 80.957 129.538 80.957s129.538 -36.2412 129.538 -80.9561
c0 -44.709 -57.9922 -80.957 -129.538 -80.957z" />
    <glyph glyph-name="quotedbl" unicode="&#x22;" horiz-adv-x="343" 
d="M151.428 754.135l-25.585 -133.412h-119.259l-25.584 133.412v87.4707h170.428v-87.4707zM335.462 620.723h-119.246l-25.5908 133.412v87.4707h170.428v-87.4707z" />
    <glyph glyph-name="numbersign" unicode="#" horiz-adv-x="595" 
d="M80.4141 654.895h242.083l-16.5312 -139.185l-6.41309 -53.9775h13.4053l6.41309 53.9775l16.5312 139.185h242.081l-22.9365 -193.162h26.6953l-9.45117 -79.5752h-26.6963l-12.9678 -109.201h26.6953l-9.45117 -79.5752h-26.6963l-22.9365 -193.169h-242.081
l22.9365 193.169h-13.4053l-22.9365 -193.169h-242.081l22.9365 193.169h-26.6084l9.45117 79.5752h26.6084l12.9678 109.201h-26.6084l9.45117 79.5752h26.6084zM303.508 382.157h-13.4053l-1.77148 -14.9141l-4.08887 -34.4287l-7.10645 -59.8584h13.4053l7.10645 59.8584
l4.08887 34.4287z" />
    <glyph glyph-name="dollar" unicode="$" horiz-adv-x="563" 
d="M257.072 292.79l-128.46 38.6797c-178.99 47.96 -169.28 335.89 55.9199 335.89c24.7998 0 49.7295 -2.29004 72.5391 -10.1299v113.11h48.2998v-142.92c26.1699 -26.4805 44.3896 -69.6406 47.9492 -139.181h7.00977v166.66h177.59v-281.62h-218.52v74.0703
c0 11.3301 -6.12012 20.7803 -14.0303 22.3604v-107.39l128.46 -38.6699c178.99 -47.96 169.28 -335.89 -55.9199 -335.89c-24.7998 0 -49.7295 2.2998 -72.5391 10.1299v-113.12h-48.2998v142.93c-26.1699 26.4805 -44.3896 69.6406 -47.9395 139.181h-7.01953v-166.66
h-177.58v281.61h218.51v-74.0703c0 -11.3301 6.12988 -20.7803 14.0303 -22.3604v107.39z" />
    <glyph glyph-name="percent" unicode="%" horiz-adv-x="580" 
d="M13 590.125c0 104.23 218.315 104.231 218.315 0.000976562v-97.0225l61.2393 161.798h242.081l-164.533 -434.678c55.4121 50.7979 196.281 34.3477 196.281 -49.3838v-105.84c0 -104.224 -218.315 -104.23 -218.315 0v97.0156l-61.2393 -161.791h-242.081
l164.533 434.69c-55.4121 -50.8047 -196.281 -34.3613 -196.281 49.3701v105.84z" />
    <glyph glyph-name="ampersand" unicode="&#x26;" horiz-adv-x="552" 
d="M487.487 654.895l-0.00195312 -249.627h-223.367v99.2051c0 8.21191 -6.12305 15.0625 -14.0312 16.208v-129.438h287.921v-79.5752h-50.5215v-311.458h-181.266l-1.17188 132.152h-7.01953c-34.1797 -208.669 -290.029 -167.321 -290.029 -28.5615v158.996
c0 31.0674 11.0605 59.4473 29.4639 81.5088c21.3408 25.584 52.5566 42.6738 87.8281 45.584v7.85449c-81.0908 11.9502 -117.123 73.3174 -115.52 133.095c2.61328 97.332 94.5293 147.086 174.428 130.616c53.3916 -11.0068 101.421 -51.5996 113.829 -127.342h7.01953
v120.781h182.438zM250.086 311.667v-147.559c7.9082 1.13867 14.0312 7.98926 14.0312 16.2012v131.357h-14.0312z" />
    <glyph glyph-name="quotesingle" unicode="'" horiz-adv-x="133" 
d="M125.843 620.724h-119.253l-25.5908 133.412v87.4707h170.435v-87.4707z" />
    <glyph glyph-name="parenleft" unicode="(" 
d="M316.604 853.58v-49.2354c-7.9082 -1.14551 -61.5293 -17.4336 -61.5293 -62.6807v-831.012c0 -45.2471 53.6211 -61.5352 61.5293 -62.6807v-49.2354c-174.584 0 -303.604 102.56 -303.604 221.986v610.871c0 119.434 129.02 221.986 303.604 221.986z" />
    <glyph glyph-name="parenright" unicode=")" 
d="M-49 804.345v49.2354c174.584 0 303.604 -102.553 303.604 -221.986v-610.871c0 -119.427 -129.02 -221.986 -303.604 -221.986v49.2354c7.9082 1.14551 61.5225 17.4336 61.5225 62.6807v831.012c0 45.2471 -53.6211 61.5352 -61.5225 62.6807z" />
    <glyph glyph-name="asterisk" unicode="*" horiz-adv-x="243" 
d="M54.4316 697.016l34.5664 -47.5566l2.51953 2.16895c1.93359 1.6709 4.00879 3.17969 6.19141 4.50684l2.83594 1.72461l-34.5439 47.5508l12.3008 24.1426h86.2783l12.3008 -24.1494l-34.5439 -47.5449l2.83594 -1.72461
c2.18262 -1.32715 4.25781 -2.83594 6.19141 -4.50684l2.51953 -2.16895l34.5566 47.5645l26.7627 -4.24414l26.6689 -82.0674l-19.165 -19.165l-55.9111 18.168l-0.754883 -3.24023c-0.579102 -2.48535 -1.37402 -4.92383 -2.36426 -7.27441l-1.28711 -3.06543
l55.9043 -18.1611l4.2373 -26.7627l-69.8076 -50.7178l-24.1426 12.3008v58.7803l-3.31445 -0.276367c-1.27344 -0.107422 -2.55371 -0.161133 -3.83398 -0.161133s-2.56055 0.0537109 -3.83398 0.161133l-3.31445 0.276367v-58.7803l-24.1426 -12.3076l-69.8076 50.7178
l4.24414 26.7627l55.9043 18.1611l-1.28711 3.06543c-0.990234 2.35059 -1.77832 4.78906 -2.36426 7.27441l-0.754883 3.24023l-55.9111 -18.168l-19.165 19.165l26.6689 82.0674z" />
    <glyph glyph-name="plus" unicode="+" horiz-adv-x="345" 
d="M249.059 402.742h91.8896v-153.162h-91.8896v-91.8896h-153.162v91.8896h-91.8965v153.162h91.8965v91.8896h153.162v-91.8896z" />
    <glyph glyph-name="comma" unicode="," horiz-adv-x="265" 
d="M261.901 68.71c0 -72.9297 -95.2705 -130.199 -211.891 -136.859v11.0801c27.1396 12.1299 49.6299 27.6494 65.6299 45.4893c-19.0596 1.54004 -36.8291 5.66992 -52.3594 11.7998c-108.97 43.0098 -60.7598 149.45 69.0898 149.45
c71.5303 0 129.53 -36.2402 129.53 -80.96z" />
    <glyph glyph-name="hyphen" unicode="-" horiz-adv-x="347" 
d="M341.947 249.58h-336.947v153.162h336.947v-153.162z" />
    <glyph glyph-name="period" unicode="." horiz-adv-x="266" 
d="M262.076 68.7119c0 -28.8379 -24.1221 -54.1533 -60.4512 -68.4951c-19.9932 -7.89453 -43.6846 -12.4619 -69.0869 -12.4619c-25.3955 0 -49.0869 4.56738 -69.0869 12.4619c-36.3223 14.3418 -60.4512 39.6562 -60.4512 68.4941c0 44.709 57.999 80.957 129.538 80.957
s129.538 -36.2412 129.538 -80.9561z" />
    <glyph glyph-name="slash" unicode="/" horiz-adv-x="482" 
d="M468.162 653.5l-213.081 -654.677h-242.081l213.081 654.677h242.081z" />
    <glyph glyph-name="zero" unicode="0" horiz-adv-x="502" 
d="M490.48 527.66v-400.699c0 -185.94 -479.48 -185.94 -479.48 0v400.7c0 185.93 479.48 185.939 479.48 -0.000976562zM211.381 182.121l131.261 407.78c-7.87988 1.33984 -15.8096 -3.31055 -18.3193 -11.1309l-165.48 -514.05
c7.87988 -1.33984 15.8096 3.31055 18.3193 11.1201z" />
    <glyph glyph-name="one" unicode="1" horiz-adv-x="322" 
d="M13 520.05l38.0996 134.63h257.04v-654.68h-242.09v520.05h-53.0498z" />
    <glyph glyph-name="two" unicode="2" horiz-adv-x="549" 
d="M420.32 331.22l-128.469 -38.6807v-168.01c7.91016 1.57031 14.04 11.0205 14.04 22.3506v134.7h218.51v-281.61h-513.4v73.6504c0 159.48 11.6504 225.311 149.66 264.761l82.8896 23.6904v107.39c-7.91016 -1.57031 -14.0303 -11.0205 -14.0303 -22.3506v-74.0703
h-218.52v281.61h177.59v-166.66h7.01953c7.9502 155.35 88.9805 179.119 168.78 179.119c225.2 0 234.91 -287.93 55.9297 -335.89z" />
    <glyph glyph-name="three" unicode="3" horiz-adv-x="552" 
d="M244.55 292.54l-139.01 0.00195312v69.5303h139.01v107.39c-7.91016 -1.57031 -14.0303 -11.0205 -14.0303 -22.3506v-71h-218.52v278.54h177.58v-166.66h7.01953c7.9502 155.35 88.9902 179.119 168.78 179.119c109.3 0 179.8 -74.9502 181.03 -164.4
c1.58984 -115.57 -77.3105 -166.37 -185.23 -171.89v-7.01953c106.31 -5.44043 183.71 -53.6406 185.229 -167.16c1.24023 -91.5195 -69.8193 -169.14 -181.029 -169.14c-79.79 0 -160.83 23.7803 -168.78 179.13h-7.01953v-166.66h-177.58v278.54h218.52v-71
c0 -11.3301 6.12012 -20.7803 14.0303 -22.3604v107.39z" />
    <glyph glyph-name="four" unicode="4" horiz-adv-x="545" 
d="M117.005 654.677l274.53 -0.000976562v-84.082c0 -14.0859 -2.04102 -27.0732 -5.66504 -39.5146l-6.66895 -18.5586l-24.3447 -67.7598h0.283203c-8.29199 -23.8467 -4.62793 -12.5908 -12.6445 -36.7129l-50.8115 -152.886
c-4.37207 -13.1562 -4.3584 -26.9658 0 -40.1289l0.276367 -0.834961l64.4326 193.85l37.0762 111.997h98.0195v-267.995h40.667v-134.631h-40.667v-117.413h-242.081v117.413h-237.406v117.42c32.0918 89.3232 62.8223 176.571 93.0479 264.628
c6.72949 14.3213 10.9463 26.1504 11.7949 34.4834c0.107422 1.03711 0.161133 2.02051 0.161133 2.9502v117.776z" />
    <glyph glyph-name="five" unicode="5" horiz-adv-x="500" 
d="M489.48 363.2v-236.238c0 -185.94 -479.48 -185.921 -479.48 -0.000976562v182.63h242.08v-260.4c7.90039 1.13965 14.0303 8 14.0303 16.21v375.57c-7.90039 -1.15039 -14.0303 -8 -14.0303 -16.21v-101.14h-236.01v331.02h467.35v-137.62h-231.34v-14.4102
c119.08 -0.580078 237.4 -47.04 237.4 -139.41z" />
    <glyph glyph-name="six" unicode="6" horiz-adv-x="501" 
d="M490.47 456.23l-223.358 -0.00195312v47.9902c0 8.20996 -6.12012 15.0703 -14.0303 16.21v-78.2305c4.67969 -0.0195312 9.35938 -0.129883 14.0293 -0.290039c94.9004 -3.36035 186.37 -35.9805 214.54 -97.8506c2.05957 -4.53027 3.7793 -9.2002 5.13965 -14.04
c2.41992 -8.58984 3.68945 -17.6895 3.68945 -27.2695v-175.79c0 -9.58984 -1.26953 -18.6699 -3.68945 -27.2803c-1.36035 -4.83008 -3.08008 -9.50977 -5.13965 -14.0293c-28.1699 -61.8799 -119.64 -94.4902 -214.54 -97.8604
c-4.66992 -0.160156 -9.34961 -0.259766 -14.0293 -0.279297c-120.65 -0.610352 -242.08 45.8799 -242.08 139.45v424.1c0 70.5801 66.21 115.98 135.76 116.051c67.1699 0.0800781 137.47 -30.7295 154.26 -133.249h7.01953v120.78h182.43v-198.41zM253.071 364.309
v-315.12c7.91016 1.13965 14.04 7.98926 14.04 16.1992v315.12c-7.91016 -1.13965 -14.04 -7.98926 -14.04 -16.1992z" />
    <glyph glyph-name="seven" unicode="7" horiz-adv-x="490" 
d="M9 654.65h442.512v-117.42l-75.4102 -209.92h0.280273c-8.29004 -23.8398 -16.4697 -47.7998 -24.4795 -71.9199l-50.8203 -152.88v-102.54h-292.08v117.42l75.4102 209.92h-0.280273c8.29004 23.8398 16.4697 47.79 24.4893 71.9102l50.8096 152.88
c4.37988 13.1699 4.36035 26.96 0 40.1299l-0.280273 0.839844l-64.4199 -193.85h-85.7305v255.43z" />
    <glyph glyph-name="eight" unicode="8" horiz-adv-x="496" 
d="M487.48 481.9c0 -54.04 -40.5 -92.3711 -97.9502 -115.001v-6.04004c57.4502 -22.6299 97.9502 -60.96 97.9502 -114.99v-118.9c0 -88.7305 -109.19 -135.12 -223.37 -139.16c-4.66992 -0.160156 -9.34961 -0.259766 -14.0293 -0.290039
c-120.65 -0.599609 -242.08 45.8809 -242.08 139.451v118.9c0 54.04 40.5 92.3604 97.9502 114.99v6.04004c-57.4502 22.6299 -97.9502 60.9697 -97.9502 115v45.7598c0 93.5703 121.43 140.061 242.08 139.45c4.67969 -0.0195312 9.35938 -0.129883 14.0293 -0.290039
c114.18 -4.04004 223.37 -50.4297 223.37 -139.16v-45.7598zM264.11 316.729l-11.1104 0.00195312c-1.83008 -2.65039 -2.91992 -5.86035 -2.91992 -9.31055v-258.23c7.91016 1.13965 14.0303 7.98926 14.0303 16.1992v251.34zM250.09 404.132
c7.90039 1.13965 14.0303 7.99023 14.0303 16.2002v185.1c-7.91016 -1.15039 -14.0303 -8 -14.0303 -16.21v-185.09z" />
    <glyph glyph-name="nine" unicode="9" horiz-adv-x="501" 
d="M10 198.38h223.369v-47.9902c0 -8.20996 6.12012 -15.0596 14.0303 -16.1992v78.2305c-4.67969 0.0195312 -9.35938 0.119141 -14.0293 0.279297c-94.9004 3.37012 -186.37 35.9805 -214.54 97.8604c-2.05957 4.51953 -3.7793 9.19922 -5.13965 14.0293
c-2.41992 8.61035 -3.68945 17.6904 -3.68945 27.2803v175.79c0 9.58008 1.26953 18.6797 3.68945 27.2695c1.36035 4.83008 3.08008 9.52051 5.13965 14.04c28.1699 61.8701 119.64 94.4902 214.54 97.8506c4.66992 0.160156 9.34961 0.270508 14.0293 0.290039
c120.65 0.610352 242.08 -45.8799 242.08 -139.45v-424.1c0 -70.5898 -66.21 -115.979 -135.76 -116.06c-67.1699 -0.0800781 -137.47 30.7295 -154.26 133.249h-7.01953v-120.78h-182.44v198.41zM247.409 290.31v315.109
c-7.91016 -1.13965 -14.04 -7.98926 -14.04 -16.1992v-315.12c7.91016 1.13965 14.04 8 14.04 16.21z" />
    <glyph glyph-name="colon" unicode=":" horiz-adv-x="270" 
d="M5 427.209c0 44.709 57.9922 80.957 129.538 80.957c71.5391 0 129.538 -36.248 129.538 -80.957c0 -28.8379 -24.1221 -54.1523 -60.4512 -68.4941c-19.9932 -7.89453 -43.6914 -12.4619 -69.0869 -12.4619s-49.0938 4.56738 -69.0869 12.4619
c-36.3223 14.3418 -60.4512 39.6562 -60.4512 68.4941zM134.538 306.077c71.5391 0 129.538 -36.248 129.538 -80.957c0 -28.8379 -24.1221 -54.1523 -60.4512 -68.4941c-19.9932 -7.89453 -43.6914 -12.4619 -69.0869 -12.4619s-49.0938 4.56738 -69.0869 12.4619
c-36.3223 14.3418 -60.4512 39.6562 -60.4512 68.4941c0 44.709 57.9922 80.957 129.538 80.957z" />
    <glyph glyph-name="semicolon" unicode=";" 
d="M4 427.209c0 44.709 57.999 80.957 129.545 80.957s129.545 -36.248 129.531 -80.957c0 -28.8379 -24.1221 -54.1523 -60.4512 -68.4941c-19.9932 -7.89453 -43.6846 -12.4619 -69.0869 -12.4619c-25.3955 0 -49.0869 4.56738 -69.0869 12.4619
c-36.3223 14.3418 -60.4512 39.6562 -60.4512 68.4941zM263.09 225.114c0 -72.9268 -95.2783 -130.192 -211.89 -136.861v11.0742c27.1338 12.1387 49.626 27.6592 65.625 45.4971c-19.0635 1.54297 -36.8271 5.66602 -52.3613 11.7959
c-108.966 43.0107 -60.7539 149.45 69.0879 149.45c71.5391 0 129.538 -36.2412 129.538 -80.9561z" />
    <glyph glyph-name="equal" unicode="=" horiz-adv-x="353" 
d="M344.947 497.724v-153.162h-336.947v153.162h336.947zM8 307.762h336.947v-153.162h-336.947v153.162z" />
    <glyph glyph-name="question" unicode="?" horiz-adv-x="560" 
d="M358.085 312.126l-0.000976562 -134.045h-213.371v82.0137c0 43.7383 27.7598 80.8008 69.7334 93.1084l31.1016 9.11426v107.39c-7.9082 -1.57617 -14.0312 -11.0273 -14.0312 -22.3574v-74.0654h-218.518v281.609h177.588v-166.662h7.01953
c7.94922 155.352 88.9932 179.124 168.784 179.124c225.2 0 234.907 -287.935 55.9248 -335.89zM380.94 68.7109c0 -28.8379 -24.1289 -54.1533 -60.4512 -68.4951c-19.9932 -7.89453 -43.6846 -12.4619 -69.0869 -12.4619c-25.3955 0 -49.0938 4.56738 -69.0869 12.4619
c-36.3291 14.3418 -60.4512 39.6562 -60.4512 68.4941c0 44.709 57.9922 80.957 129.538 80.957c71.5391 0 129.538 -36.2412 129.538 -80.9561z" />
    <glyph glyph-name="at" unicode="@" horiz-adv-x="977" 
d="M776.293 752.923c104.5 0 189.996 -85.499 189.996 -189.999v-332.198c0 -86.0156 -70.3672 -156.39 -156.383 -156.39h-107.066c-30.5889 0 -59.1982 8.89844 -83.3682 24.2373c-43.0645 27.3291 -72.0303 75.0889 -72.9932 129.363l-0.0273438 2.78906h-7.01953
c-34.1797 -208.669 -290.029 -167.322 -290.029 -28.5625v235.958c0 70.7236 57.332 128.056 128.056 128.056h351.417v-387.827c0 -3.85938 3.15918 -7.01855 7.01953 -7.01855s7.01953 3.15918 7.01953 7.01953v436.126c0 17.7568 -12.7314 32.6777 -29.5186 36.0859
c-2.35742 0.485352 -4.80273 0.734375 -7.29492 0.734375h-433.916c-20.249 0 -36.8135 -16.5645 -36.8135 -36.8135v-576.671c0 -20.249 16.5645 -36.8135 36.8135 -36.8135h433.916c20.249 0 36.8135 16.5645 36.8135 36.8135h216.214
c-22.6064 -79.6494 -96.1865 -138.437 -182.835 -138.437h-574.293c-104.506 0 -189.996 85.4971 -189.996 189.997v473.553c0 104.5 85.4902 189.997 189.996 189.997h574.293zM505.515 278.675v237.217h-14.0312v-253.418c7.9082 1.13867 14.0312 7.98926 14.0312 16.2012
z" />
    <glyph glyph-name="A" unicode="A" horiz-adv-x="498" 
d="M234.08 0.00976562h-242.081l103.82 520.04h-48.5098v134.63h401.65v-134.63h-48.5098l103.82 -520.05h-242.08l-7.34961 36.8496v161.41h-13.4004v-161.41zM254.839 520.05h-13.4004v-242.21h13.4004v242.21z" />
    <glyph glyph-name="A" unicode="&#xc5;" horiz-adv-x="498" 
d="M234.08 0.00976562h-242.081l103.82 520.04h-48.5098v134.63h401.65v-134.63h-48.5098l103.82 -520.05h-242.08l-7.34961 36.8496v161.41h-13.4004v-161.41zM254.839 520.05h-13.4004v-242.21h13.4004v242.21z" />
    <glyph glyph-name="A" unicode="&#xc4;" horiz-adv-x="498" 
d="M234.08 0.00976562h-242.081l103.82 520.04h-48.5098v134.63h401.65v-134.63h-48.5098l103.82 -520.05h-242.08l-7.34961 36.8496v161.41h-13.4004v-161.41zM254.839 520.05h-13.4004v-242.21h13.4004v242.21z" />
    <glyph glyph-name="A" unicode="&#xc3;" horiz-adv-x="498" 
d="M234.08 0.00976562h-242.081l103.82 520.04h-48.5098v134.63h401.65v-134.63h-48.5098l103.82 -520.05h-242.08l-7.34961 36.8496v161.41h-13.4004v-161.41zM254.839 520.05h-13.4004v-242.21h13.4004v242.21z" />
    <glyph glyph-name="A" unicode="&#xc2;" horiz-adv-x="498" 
d="M234.08 0.00976562h-242.081l103.82 520.04h-48.5098v134.63h401.65v-134.63h-48.5098l103.82 -520.05h-242.08l-7.34961 36.8496v161.41h-13.4004v-161.41zM254.839 520.05h-13.4004v-242.21h13.4004v242.21z" />
    <glyph glyph-name="A" unicode="&#xc1;" horiz-adv-x="498" 
d="M234.08 0.00976562h-242.081l103.82 520.04h-48.5098v134.63h401.65v-134.63h-48.5098l103.82 -520.05h-242.08l-7.34961 36.8496v161.41h-13.4004v-161.41zM254.839 520.05h-13.4004v-242.21h13.4004v242.21z" />
    <glyph glyph-name="A" unicode="&#xc0;" horiz-adv-x="498" 
d="M234.08 0.00976562h-242.081l103.82 520.04h-48.5098v134.63h401.65v-134.63h-48.5098l103.82 -520.05h-242.08l-7.34961 36.8496v161.41h-13.4004v-161.41zM254.839 520.05h-13.4004v-242.21h13.4004v242.21z" />
    <glyph glyph-name="B" unicode="B" horiz-adv-x="498" 
d="M13 -0.169922l-0.000976562 654.68h356.27c148.99 0 172.34 -232.62 5.92969 -257.14v-7.86035c65.6797 -5.41992 117.29 -59.9902 117.29 -127.09v-159c0 -138.76 -255.85 -180.1 -290.029 28.5605h-7.01953l-1.16992 -132.15h-181.27zM250.399 163.729v203.129
h-14.0303v-186.93c0 -8.20996 6.12012 -15.0596 14.0303 -16.1992zM250.399 604.219h-14.0303v-157.79h14.0303v157.79z" />
    <glyph glyph-name="C" unicode="C" horiz-adv-x="500" 
d="M488.48 329.89l0.000976562 -203.071c0 -185.94 -479.48 -185.94 -479.48 0v424.11c0 70.5898 66.21 115.97 135.76 116.05c67.1699 0.0703125 137.47 -30.7295 154.26 -133.249h7.01953v120.78h182.44v-310.59h-223.37v160.18
c0 8.20996 -6.12012 15.0596 -14.0303 16.1992v-471.25c7.90039 1.15039 14.0303 8.01074 14.0303 16.2109v264.63h223.37z" />
    <glyph glyph-name="C" unicode="&#xc7;" horiz-adv-x="500" 
d="M488.48 329.89l0.000976562 -203.071c0 -185.94 -479.48 -185.94 -479.48 0v424.11c0 70.5898 66.21 115.97 135.76 116.05c67.1699 0.0703125 137.47 -30.7295 154.26 -133.249h7.01953v120.78h182.44v-310.59h-223.37v160.18
c0 8.20996 -6.12012 15.0596 -14.0303 16.1992v-471.25c7.90039 1.15039 14.0303 8.01074 14.0303 16.2109v264.63h223.37z" />
    <glyph glyph-name="D" unicode="D" horiz-adv-x="502" 
d="M13 -0.169922v654.689h356.27c88.6299 0 123.21 -70.7197 123.21 -148.14v-358.41c0 -77.4297 -34.5801 -148.14 -123.21 -148.14h-356.27zM236.37 604.22v-554.11h14.0303v554.11h-14.0303z" />
    <glyph glyph-name="E" unicode="E" horiz-adv-x="342" 
d="M334.87 -0.169922l-321.87 -0.000976562v654.68h321.87v-134.63h-79.79v-125.39h79.79v-134.64h-79.79v-125.39h79.79v-134.63z" />
    <glyph glyph-name="E" unicode="&#xcb;" horiz-adv-x="342" 
d="M334.87 -0.169922l-321.87 -0.000976562v654.68h321.87v-134.63h-79.79v-125.39h79.79v-134.64h-79.79v-125.39h79.79v-134.63z" />
    <glyph glyph-name="E" unicode="&#xca;" horiz-adv-x="342" 
d="M334.87 -0.169922l-321.87 -0.000976562v654.68h321.87v-134.63h-79.79v-125.39h79.79v-134.64h-79.79v-125.39h79.79v-134.63z" />
    <glyph glyph-name="E" unicode="&#xc9;" horiz-adv-x="342" 
d="M334.87 -0.169922l-321.87 -0.000976562v654.68h321.87v-134.63h-79.79v-125.39h79.79v-134.64h-79.79v-125.39h79.79v-134.63z" />
    <glyph glyph-name="E" unicode="&#xc8;" horiz-adv-x="342" 
d="M334.87 -0.169922l-321.87 -0.000976562v654.68h321.87v-134.63h-79.79v-125.39h79.79v-134.64h-79.79v-125.39h79.79v-134.63z" />
    <glyph glyph-name="F" unicode="F" horiz-adv-x="335" 
d="M255.07 -0.169922l-242.07 -0.000976562v654.68h321.86v-134.63h-79.79v-125.39h79.79v-134.64h-79.79v-260.02z" />
    <glyph glyph-name="G" unicode="G" horiz-adv-x="500" 
d="M488.48 449.09l-0.0117188 -29.9023h-223.36v169.9c0 8.2002 -6.12988 15.0605 -14.04 16.2002v-200.13h237.4v-405.32h-182.43v120.78h-7.01953c-16.79 -102.52 -87.0898 -133.319 -154.26 -133.249c-69.5498 0.0703125 -135.76 45.4707 -135.76 116.051v424.1
c0 185.95 479.48 185.95 479.48 0v-78.4297zM265.099 325.578l-14.0303 0.000976562v-191.53c7.91016 1.13965 14.0303 7.98926 14.0303 16.1992v175.33z" />
    <glyph glyph-name="H" unicode="H" horiz-adv-x="524" 
d="M255.08 654.51v-208.08h13.4102v208.08h242.07v-654.68h-242.07v367.03h-13.4102v-367.03h-242.08v654.68h242.08z" />
    <glyph glyph-name="I" unicode="I" horiz-adv-x="269" 
d="M255.08 -0.169922h-242.08v654.69h242.08v-654.69z" />
    <glyph glyph-name="I" unicode="&#xcf;" horiz-adv-x="269" 
d="M255.08 -0.169922h-242.08v654.69h242.08v-654.69z" />
    <glyph glyph-name="I" unicode="&#xce;" horiz-adv-x="269" 
d="M255.08 -0.169922h-242.08v654.69h242.08v-654.69z" />
    <glyph glyph-name="I" unicode="&#xcd;" horiz-adv-x="269" 
d="M255.08 -0.169922h-242.08v654.69h242.08v-654.69z" />
    <glyph glyph-name="I" unicode="&#xcc;" horiz-adv-x="269" 
d="M255.08 -0.169922h-242.08v654.69h242.08v-654.69z" />
    <glyph glyph-name="J" unicode="J" 
d="M12.6523 64.6621v590.265h242.081v-590.258c0 -134.53 -205.86 -199.373 -318.733 -208.669v59.9932c82.7891 22.6738 76.6523 49.5518 76.6523 148.669z" />
    <glyph glyph-name="K" unicode="K" horiz-adv-x="521" 
d="M262.1 455.88l36.4697 198.63h211.45v-145.73l-132.15 -48v-7.01953c67.25 -11.0195 132.15 -49.4395 132.15 -123.89v-330.04h-242.08v394.63c-7.91016 -1.13965 -14.0303 -8 -14.0303 -16.2002v-378.43h-240.91v654.68h242.081v-198.63h7.01953z" />
    <glyph glyph-name="L" unicode="L" horiz-adv-x="327" 
d="M334.87 -0.169922h-321.87v654.68h242.08v-520.05h79.79v-134.63z" />
    <glyph glyph-name="M" unicode="M" horiz-adv-x="631" 
d="M13 654.51h265.551l31.5996 -246.74h10.0596l31.5996 246.74h265.55v-654.68h-268.93l42.6904 219.24l7.33984 37.7002c3.80957 19.5703 3.80957 37.6006 0 57.1709l-0.730469 3.76953l-61.8896 -317.88h-41.3203l-61.8896 317.88l-0.740234 -3.76953
c-3.7998 -19.5703 -3.7998 -37.6006 0 -57.1709l7.34961 -37.7002l42.6904 -219.24h-268.93v654.68z" />
    <glyph glyph-name="N" unicode="N" horiz-adv-x="524" 
d="M13 -0.169922v654.689h216.04l61.8896 -317.88l0.740234 3.76953c3.7998 19.5596 3.7998 37.5996 0 57.1699l-7.34961 37.7002l-8.95996 59.5498v159.68h235.21v-654.68h-216.04l-61.8896 317.87l-0.740234 -3.76953c-3.80957 -19.5596 -3.80957 -37.5898 0 -57.1602
l7.33984 -37.71l8.95996 -59.5498v-159.68h-235.2z" />
    <glyph glyph-name="N" unicode="&#xd1;" horiz-adv-x="524" 
d="M13 -0.169922v654.689h216.04l61.8896 -317.88l0.740234 3.76953c3.7998 19.5596 3.7998 37.5996 0 57.1699l-7.34961 37.7002l-8.95996 59.5498v159.68h235.21v-654.68h-216.04l-61.8896 317.87l-0.740234 -3.76953c-3.80957 -19.5596 -3.80957 -37.5898 0 -57.1602
l7.33984 -37.71l8.95996 -59.5498v-159.68h-235.2z" />
    <glyph glyph-name="O" unicode="O" horiz-adv-x="498" 
d="M488.48 527.52v-400.7c0 -185.94 -479.48 -185.94 -479.48 0v400.7c0 185.95 479.48 185.95 479.48 0zM265.12 65.2598v540.03c-7.90039 -1.13965 -14.0303 -8 -14.0303 -16.2002v-540.04c7.90039 1.13965 14.0303 8 14.0303 16.21z" />
    <glyph glyph-name="O" unicode="&#xd8;" horiz-adv-x="498" 
d="M488.48 527.52v-400.7c0 -185.94 -479.48 -185.94 -479.48 0v400.7c0 185.95 479.48 185.95 479.48 0zM265.12 65.2598v540.03c-7.90039 -1.13965 -14.0303 -8 -14.0303 -16.2002v-540.04c7.90039 1.13965 14.0303 8 14.0303 16.21z" />
    <glyph glyph-name="O" unicode="&#xd6;" horiz-adv-x="498" 
d="M488.48 527.52v-400.7c0 -185.94 -479.48 -185.94 -479.48 0v400.7c0 185.95 479.48 185.95 479.48 0zM265.12 65.2598v540.03c-7.90039 -1.13965 -14.0303 -8 -14.0303 -16.2002v-540.04c7.90039 1.13965 14.0303 8 14.0303 16.21z" />
    <glyph glyph-name="O" unicode="&#xd5;" horiz-adv-x="498" 
d="M488.48 527.52v-400.7c0 -185.94 -479.48 -185.94 -479.48 0v400.7c0 185.95 479.48 185.95 479.48 0zM265.12 65.2598v540.03c-7.90039 -1.13965 -14.0303 -8 -14.0303 -16.2002v-540.04c7.90039 1.13965 14.0303 8 14.0303 16.21z" />
    <glyph glyph-name="O" unicode="&#xd4;" horiz-adv-x="498" 
d="M488.48 527.52v-400.7c0 -185.94 -479.48 -185.94 -479.48 0v400.7c0 185.95 479.48 185.95 479.48 0zM265.12 65.2598v540.03c-7.90039 -1.13965 -14.0303 -8 -14.0303 -16.2002v-540.04c7.90039 1.13965 14.0303 8 14.0303 16.21z" />
    <glyph glyph-name="O" unicode="&#xd3;" horiz-adv-x="498" 
d="M488.48 527.52v-400.7c0 -185.94 -479.48 -185.94 -479.48 0v400.7c0 185.95 479.48 185.95 479.48 0zM265.12 65.2598v540.03c-7.90039 -1.13965 -14.0303 -8 -14.0303 -16.2002v-540.04c7.90039 1.13965 14.0303 8 14.0303 16.21z" />
    <glyph glyph-name="O" unicode="&#xd2;" horiz-adv-x="498" 
d="M488.48 527.52v-400.7c0 -185.94 -479.48 -185.94 -479.48 0v400.7c0 185.95 479.48 185.95 479.48 0zM265.12 65.2598v540.03c-7.90039 -1.13965 -14.0303 -8 -14.0303 -16.2002v-540.04c7.90039 1.13965 14.0303 8 14.0303 16.21z" />
    <glyph glyph-name="P" unicode="P" horiz-adv-x="494" 
d="M13 0v654.676h356.274c88.6289 0 123.206 -70.7168 123.206 -148.137v-207.181c0 -138.76 -214.914 -180.106 -249.094 28.5625h-7.01953v-327.921h-223.367zM250.399 359.661v244.729h-14.0312v-228.521c0 -8.21191 6.12305 -15.0625 14.0312 -16.208z" />
    <glyph glyph-name="Q" unicode="Q" horiz-adv-x="498" 
d="M488.48 316.03l-0.0117188 -189.212c0 -68.0596 -64.2695 -111.18 -145.729 -129.41v-4.59961h145.73l-36.0596 -172.77l-234.11 -9.66016c-47.6201 -1.96973 -86.6504 38.9902 -86.6504 86.6406c0 47.6602 38.9902 86.6504 86.6504 86.6504h3.98047v4.49023
c-110.42 6.34961 -213.28 52.5498 -213.28 138.66v400.7c0 185.95 479.48 185.95 479.48 0v-211.49zM265.108 65.2588v540.03c-7.90039 -1.13965 -14.0303 -8 -14.0303 -16.2002v-540.04c7.90039 1.13965 14.0303 8 14.0303 16.21z" />
    <glyph glyph-name="R" unicode="R" horiz-adv-x="502" 
d="M13 0l0.000976562 654.681h356.268c88.6221 0 123.206 -70.7168 123.206 -148.137v-169.329c0 -109.323 -138.141 -151.755 -200.768 -57.9453h-12.0439c48.2383 -110.131 212.812 -64.9375 212.812 -64.9375v-214.327h-102.371
c-76.1943 0 -139.704 42.4453 -139.704 118.633v144.433c0 8.20508 -4.95801 15.0557 -12.8662 16.2012v-279.271h-224.533zM250.4 359.659v244.729h-14.0312v-228.521c0 -8.21191 6.12305 -15.0625 14.0312 -16.208z" />
    <glyph glyph-name="S" unicode="S" horiz-adv-x="556" 
d="M254.072 293.04l-128.46 38.6807c-178.99 47.9502 -169.28 335.891 55.9199 335.891c79.7998 0 160.84 -23.7695 168.78 -179.13h7.01953v166.67h177.59v-281.61h-218.52v74.0596c0 11.3301 -6.12012 20.7803 -14.0303 22.3604v-107.4l128.46 -38.6699
c178.99 -47.96 169.28 -335.89 -55.9199 -335.89c-79.79 0 -160.84 23.7695 -168.78 179.119h-7.01953v-166.66h-177.59v281.61h218.52v-74.0596c0 -11.3301 6.12012 -20.79 14.0303 -22.3604v107.39z" />
    <glyph glyph-name="T" unicode="T" horiz-adv-x="386" 
d="M-8 654.51h401.65v-134.63h-79.7803v-520.05h-242.09v520.05h-79.7803v134.63z" />
    <glyph glyph-name="U" unicode="U" horiz-adv-x="502" 
d="M490.48 654.51v-527.689c0 -185.94 -479.48 -185.931 -479.48 -0.000976562v527.69h242.08v-605.46c7.90039 1.13965 14.0303 8 14.0303 16.21v589.25h223.37z" />
    <glyph glyph-name="U" unicode="&#xdc;" horiz-adv-x="502" 
d="M490.48 654.51v-527.689c0 -185.94 -479.48 -185.931 -479.48 -0.000976562v527.69h242.08v-605.46c7.90039 1.13965 14.0303 8 14.0303 16.21v589.25h223.37z" />
    <glyph glyph-name="U" unicode="&#xdb;" horiz-adv-x="502" 
d="M490.48 654.51v-527.689c0 -185.94 -479.48 -185.931 -479.48 -0.000976562v527.69h242.08v-605.46c7.90039 1.13965 14.0303 8 14.0303 16.21v589.25h223.37z" />
    <glyph glyph-name="U" unicode="&#xda;" horiz-adv-x="502" 
d="M490.48 654.51v-527.689c0 -185.94 -479.48 -185.931 -479.48 -0.000976562v527.69h242.08v-605.46c7.90039 1.13965 14.0303 8 14.0303 16.21v589.25h223.37z" />
    <glyph glyph-name="U" unicode="&#xd9;" horiz-adv-x="502" 
d="M490.48 654.51v-527.689c0 -185.94 -479.48 -185.931 -479.48 -0.000976562v527.69h242.08v-605.46c7.90039 1.13965 14.0303 8 14.0303 16.21v589.25h223.37z" />
    <glyph glyph-name="V" unicode="V" horiz-adv-x="497" 
d="M95.8203 134.64l-103.819 520.04h242.08l7.36035 -36.8398v-483.2h13.4004v483.2l7.34961 36.8398h242.08l-103.82 -520.04h48.5098v-134.64h-401.65v134.64h48.5098z" />
    <glyph glyph-name="W" unicode="W" horiz-adv-x="744" 
d="M117.46 0.00976562l-127.461 654.669h242.08l13.5996 -69.8496l79.4004 -407.77l0.730469 3.76953c3.80957 19.5703 3.80957 37.5898 0 57.1602l-7.33984 37.7002l-60.1904 309.14l-5.84961 30.0195l7.75977 39.8301h222.78l13.5996 -69.8496l79.4004 -407.77
l0.730469 3.76953c3.80957 19.5703 3.80957 37.5898 0 57.1602l-7.33984 37.7002l-60.1904 309.14l-5.84961 30.0195l7.75977 39.8301h242.08l-126.72 -650.85l-0.75 -3.83008h-210.6l-20.1504 103.48l-19.4004 -99.6396l-0.740234 -3.83008h-257.34z" />
    <glyph glyph-name="X" unicode="X" horiz-adv-x="507" 
d="M295.42 654.68h218.14l-108.79 -327.34l108.79 -327.34h-288.53l-84.6504 254.7l-0.269531 -0.839844c-4.36035 -13.1699 -4.37988 -26.96 0 -40.1299l71.0303 -213.73h-218.14l108.79 327.34l-108.79 327.34h288.53l84.6504 -254.69l0.269531 0.830078
c4.36035 13.1797 4.37988 26.9697 0 40.1299z" />
    <glyph glyph-name="Y" unicode="Y" horiz-adv-x="487" 
d="M114.46 187.09l-127.46 467.589h242.08l13.5996 -49.8896l79.4004 -291.24l0.730469 2.69043c3.80957 13.9805 3.80957 26.8506 0 40.8311l-7.33984 26.9297l-60.1904 220.79l-5.84961 21.4404l7.75977 28.4502h242.08l-126.73 -464.86l-0.740234 -2.74023h-7.62988
v-187.08h-242.08v187.09h-7.62988z" />
    <glyph glyph-name="Y" unicode="&#x178;" horiz-adv-x="487" 
d="M114.46 187.09l-127.46 467.589h242.08l13.5996 -49.8896l79.4004 -291.24l0.730469 2.69043c3.80957 13.9805 3.80957 26.8506 0 40.8311l-7.33984 26.9297l-60.1904 220.79l-5.84961 21.4404l7.75977 28.4502h242.08l-126.73 -464.86l-0.740234 -2.74023h-7.62988
v-187.08h-242.08v187.09h-7.62988z" />
    <glyph glyph-name="Y" unicode="&#xdd;" horiz-adv-x="487" 
d="M114.46 187.09l-127.46 467.589h242.08l13.5996 -49.8896l79.4004 -291.24l0.730469 2.69043c3.80957 13.9805 3.80957 26.8506 0 40.8311l-7.33984 26.9297l-60.1904 220.79l-5.84961 21.4404l7.75977 28.4502h242.08l-126.73 -464.86l-0.740234 -2.74023h-7.62988
v-187.08h-242.08v187.09h-7.62988z" />
    <glyph glyph-name="Z" unicode="Z" horiz-adv-x="455" 
d="M6.00977 654.51h442.51v-117.42l-75.4102 -209.92h0.280273c-8.29004 -23.8398 -16.4697 -47.7998 -24.4893 -71.9199l-50.8096 -152.88c-4.37988 -13.1699 -4.36035 -26.9502 0 -40.1299l0.280273 -0.830078l64.4199 193.85h85.7197v-255.43h-442.51v117.42
l75.4102 209.92h-0.280273c8.29004 23.8398 16.4697 47.7998 24.4893 71.9199l50.8096 152.89c4.37988 13.1699 4.36035 26.9502 0 40.1201l-0.280273 0.839844l-64.4199 -193.85h-85.7197v255.42z" />
    <glyph glyph-name="bracketleft" unicode="[" 
d="M398.772 741.188h-143.691v-827.287h143.691v-100.828h-385.772v1028.94h385.772v-100.828z" />
    <glyph glyph-name="backslash" unicode="\" horiz-adv-x="482" 
d="M255.081 653.489l213.081 -654.677h-242.074l-213.088 654.677h242.081z" />
    <glyph glyph-name="bracketright" unicode="]" 
d="M-131 842.017h385.779v-1028.94h-385.779v100.828h143.698v827.287h-143.698v100.828z" />
    <glyph glyph-name="asciicircum" unicode="^" horiz-adv-x="513" 
d="M385.55 840.394l126.708 -275.694h-242.074l-5.85352 12.7383l5.84668 12.7178l60.1885 130.939l7.34277 15.9717c3.8125 8.29199 1.91309 20.0674 -1.89941 28.3525l-0.734375 1.59668l-79.3936 -172.725l-13.6006 -29.5859h-242.081l127.471 277.312h257.332z" />
    <glyph glyph-name="underscore" unicode="_" horiz-adv-x="507" 
d="M503.443 -12.6738h-500.443v94.7725h500.443v-94.7725z" />
    <glyph glyph-name="grave" unicode="`" horiz-adv-x="273" 
d="M155.728 530.806l-142.728 168.427h174.059l86.8975 -168.427h-118.229z" />
    <glyph glyph-name="a" unicode="a" horiz-adv-x="485" 
d="M256.112 258.952v74.4365c-7.9082 -1.14551 -14.0312 -7.99609 -14.0312 -16.2012v-50.2393h-218.518v200.653h177.588v-120.781h7.01953c16.7939 102.52 68.3799 133.317 135.554 133.243c69.5381 -0.0742188 130.905 -45.4629 130.905 -116.052v-364.014h-177.588
v120.781h-7.01953c-16.7939 -102.52 -87.0938 -133.324 -154.261 -133.25c-69.5518 0.0878906 -135.763 45.4697 -135.763 116.059c0 67.7529 41.5225 115.708 107.996 128.595zM256.112 158.609v52.9072l-14.0312 -2.90332v-74.3955
c14.752 2.13574 14.0312 15.6416 14.0312 24.3916z" />
    <glyph glyph-name="a" unicode="&#xe5;" horiz-adv-x="485" 
d="M256.112 258.952v74.4365c-7.9082 -1.14551 -14.0312 -7.99609 -14.0312 -16.2012v-50.2393h-218.518v200.653h177.588v-120.781h7.01953c16.7939 102.52 68.3799 133.317 135.554 133.243c69.5381 -0.0742188 130.905 -45.4629 130.905 -116.052v-364.014h-177.588
v120.781h-7.01953c-16.7939 -102.52 -87.0938 -133.324 -154.261 -133.25c-69.5518 0.0878906 -135.763 45.4697 -135.763 116.059c0 67.7529 41.5225 115.708 107.996 128.595zM256.112 158.609v52.9072l-14.0312 -2.90332v-74.3955
c14.752 2.13574 14.0312 15.6416 14.0312 24.3916z" />
    <glyph glyph-name="a" unicode="&#xe4;" horiz-adv-x="485" 
d="M256.112 258.952v74.4365c-7.9082 -1.14551 -14.0312 -7.99609 -14.0312 -16.2012v-50.2393h-218.518v200.653h177.588v-120.781h7.01953c16.7939 102.52 68.3799 133.317 135.554 133.243c69.5381 -0.0742188 130.905 -45.4629 130.905 -116.052v-364.014h-177.588
v120.781h-7.01953c-16.7939 -102.52 -87.0938 -133.324 -154.261 -133.25c-69.5518 0.0878906 -135.763 45.4697 -135.763 116.059c0 67.7529 41.5225 115.708 107.996 128.595zM256.112 158.609v52.9072l-14.0312 -2.90332v-74.3955
c14.752 2.13574 14.0312 15.6416 14.0312 24.3916z" />
    <glyph glyph-name="a" unicode="&#xe3;" horiz-adv-x="485" 
d="M256.112 258.952v74.4365c-7.9082 -1.14551 -14.0312 -7.99609 -14.0312 -16.2012v-50.2393h-218.518v200.653h177.588v-120.781h7.01953c16.7939 102.52 68.3799 133.317 135.554 133.243c69.5381 -0.0742188 130.905 -45.4629 130.905 -116.052v-364.014h-177.588
v120.781h-7.01953c-16.7939 -102.52 -87.0938 -133.324 -154.261 -133.25c-69.5518 0.0878906 -135.763 45.4697 -135.763 116.059c0 67.7529 41.5225 115.708 107.996 128.595zM256.112 158.609v52.9072l-14.0312 -2.90332v-74.3955
c14.752 2.13574 14.0312 15.6416 14.0312 24.3916z" />
    <glyph glyph-name="a" unicode="&#xe2;" horiz-adv-x="485" 
d="M256.112 258.952v74.4365c-7.9082 -1.14551 -14.0312 -7.99609 -14.0312 -16.2012v-50.2393h-218.518v200.653h177.588v-120.781h7.01953c16.7939 102.52 68.3799 133.317 135.554 133.243c69.5381 -0.0742188 130.905 -45.4629 130.905 -116.052v-364.014h-177.588
v120.781h-7.01953c-16.7939 -102.52 -87.0938 -133.324 -154.261 -133.25c-69.5518 0.0878906 -135.763 45.4697 -135.763 116.059c0 67.7529 41.5225 115.708 107.996 128.595zM256.112 158.609v52.9072l-14.0312 -2.90332v-74.3955
c14.752 2.13574 14.0312 15.6416 14.0312 24.3916z" />
    <glyph glyph-name="a" unicode="&#xe1;" horiz-adv-x="485" 
d="M256.112 258.952v74.4365c-7.9082 -1.14551 -14.0312 -7.99609 -14.0312 -16.2012v-50.2393h-218.518v200.653h177.588v-120.781h7.01953c16.7939 102.52 68.3799 133.317 135.554 133.243c69.5381 -0.0742188 130.905 -45.4629 130.905 -116.052v-364.014h-177.588
v120.781h-7.01953c-16.7939 -102.52 -87.0938 -133.324 -154.261 -133.25c-69.5518 0.0878906 -135.763 45.4697 -135.763 116.059c0 67.7529 41.5225 115.708 107.996 128.595zM256.112 158.609v52.9072l-14.0312 -2.90332v-74.3955
c14.752 2.13574 14.0312 15.6416 14.0312 24.3916z" />
    <glyph glyph-name="a" unicode="&#xe0;" horiz-adv-x="485" 
d="M256.112 258.952v74.4365c-7.9082 -1.14551 -14.0312 -7.99609 -14.0312 -16.2012v-50.2393h-218.518v200.653h177.588v-120.781h7.01953c16.7939 102.52 68.3799 133.317 135.554 133.243c69.5381 -0.0742188 130.905 -45.4629 130.905 -116.052v-364.014h-177.588
v120.781h-7.01953c-16.7939 -102.52 -87.0938 -133.324 -154.261 -133.25c-69.5518 0.0878906 -135.763 45.4697 -135.763 116.059c0 67.7529 41.5225 115.708 107.996 128.595zM256.112 158.609v52.9072l-14.0312 -2.90332v-74.3955
c14.752 2.13574 14.0312 15.6416 14.0312 24.3916z" />
    <glyph glyph-name="b" unicode="b" horiz-adv-x="518" 
d="M253.45 638.99l1.16113 -307.569h7.01953c34.1797 208.67 247.93 175.63 247.93 36.8701v-239.77c0 -70.7305 -57.3301 -128.061 -128.061 -128.061h-369.5v588.01l188.47 50.5195h52.9805zM267.481 50.751v248.931c-7.91016 -1.15039 -14.0303 -8 -14.0303 -16.2002
v-232.73h14.0303z" />
    <glyph glyph-name="c" unicode="c" horiz-adv-x="496" 
d="M486.47 128.37c0 -182.57 -479.479 -183.552 -479.469 -0.00195312v235.96c0 70.5898 66.21 115.97 135.76 116.05c67.1699 0.0800781 137.47 -30.7295 154.26 -133.249h7.01953v120.78h182.43v-221.8h-223.36v71.3799c0 8.20996 -6.12988 15.0596 -14.04 16.21v-283.1
h14.04v181.48h223.36v-103.71z" />
    <glyph glyph-name="c" unicode="&#xe7;" horiz-adv-x="496" 
d="M486.47 128.37c0 -182.57 -479.479 -183.552 -479.469 -0.00195312v235.96c0 70.5898 66.21 115.97 135.76 116.05c67.1699 0.0800781 137.47 -30.7295 154.26 -133.249h7.01953v120.78h182.43v-221.8h-223.36v71.3799c0 8.20996 -6.12988 15.0596 -14.04 16.21v-283.1
h14.04v181.48h223.36v-103.71z" />
    <glyph glyph-name="d" unicode="d" horiz-adv-x="499" 
d="M433.51 638.99l52.9775 0.000976562v-638.53h-181.27l-1.16992 132.15h-7.01953c-34.1797 -208.67 -290.029 -167.32 -290.029 -28.5605v235.95c0 70.7197 57.3301 128.06 128.061 128.06h109.97v120.41zM263.107 417.771h-14.0303v-253.42
c7.91016 1.15039 14.0303 8 14.0303 16.21v237.21z" />
    <glyph glyph-name="e" unicode="e" horiz-adv-x="492" 
d="M485.48 234.08v-103.711c0 -185.94 -479.48 -185.94 -479.48 0v211.49c0 185.94 479.48 185.94 479.48 0v-93.75h-237.4v-195.51c7.90039 1.13965 14.0303 8 14.0303 16.2002v165.28h223.37zM262.11 298.399v121.23c-7.90039 -1.13965 -14.0303 -8 -14.0303 -16.2002
v-105.03h14.0303z" />
    <glyph glyph-name="e" unicode="&#xeb;" horiz-adv-x="492" 
d="M485.48 234.08v-103.711c0 -185.94 -479.48 -185.94 -479.48 0v211.49c0 185.94 479.48 185.94 479.48 0v-93.75h-237.4v-195.51c7.90039 1.13965 14.0303 8 14.0303 16.2002v165.28h223.37zM262.11 298.399v121.23c-7.90039 -1.13965 -14.0303 -8 -14.0303 -16.2002
v-105.03h14.0303z" />
    <glyph glyph-name="e" unicode="&#xea;" horiz-adv-x="492" 
d="M485.48 234.08v-103.711c0 -185.94 -479.48 -185.94 -479.48 0v211.49c0 185.94 479.48 185.94 479.48 0v-93.75h-237.4v-195.51c7.90039 1.13965 14.0303 8 14.0303 16.2002v165.28h223.37zM262.11 298.399v121.23c-7.90039 -1.13965 -14.0303 -8 -14.0303 -16.2002
v-105.03h14.0303z" />
    <glyph glyph-name="e" unicode="&#xe9;" horiz-adv-x="492" 
d="M485.48 234.08v-103.711c0 -185.94 -479.48 -185.94 -479.48 0v211.49c0 185.94 479.48 185.94 479.48 0v-93.75h-237.4v-195.51c7.90039 1.13965 14.0303 8 14.0303 16.2002v165.28h223.37zM262.11 298.399v121.23c-7.90039 -1.13965 -14.0303 -8 -14.0303 -16.2002
v-105.03h14.0303z" />
    <glyph glyph-name="e" unicode="&#xe8;" horiz-adv-x="492" 
d="M485.48 234.08v-103.711c0 -185.94 -479.48 -185.94 -479.48 0v211.49c0 185.94 479.48 185.94 479.48 0v-93.75h-237.4v-195.51c7.90039 1.13965 14.0303 8 14.0303 16.2002v165.28h223.37zM262.11 298.399v121.23c-7.90039 -1.13965 -14.0303 -8 -14.0303 -16.2002
v-105.03h14.0303z" />
    <glyph glyph-name="f" unicode="f" horiz-adv-x="301" 
d="M254.07 374.1l0.0107422 -373.79h-242.08v506.17c0 180.82 295.26 187.931 295.26 7.10059v-31.6299h-67.2197v48.9297c0 8.2002 -6.12988 15.0605 -14.04 16.2002v-79.1699h81.2598v-50.2803h-53.1904v-43.5303z" />
    <glyph glyph-name="g" unicode="g" horiz-adv-x="499" 
d="M134.971 467.28c117.14 0 234.269 0.000976562 351.408 0.000976562v-467.91l-375.7 -97.9297c-9.2002 -2.40039 -6.90039 -13.3506 3.44922 -10.6602l15.9199 4.15039l322.83 84.1504l32.6201 8.5l0.889648 -1.48047v-200.59
c-84.4902 -27.3799 -188.01 -44.5498 -277.229 -44.5195c-37.7998 0.00976562 -73.0195 3.60938 -103.14 11.2891c-86.71 22.1104 -139.71 105.891 -69.6104 169.11c22.4199 20.2305 55.3604 30.9004 90.6104 38.7803l177.98 46.0596l-1.04004 125.6h-7.01953
c-34.1797 -208.67 -290.029 -167.32 -290.029 -28.5605v235.96c0 70.7197 57.3301 128.05 128.061 128.05zM263.02 417.001h-14.0303v-253.43c7.90039 1.15039 14.0303 8 14.0303 16.21v237.22z" />
    <glyph glyph-name="h" unicode="h" horiz-adv-x="520" 
d="M12.0098 588.47l184.211 50.5205h57.2305l1.16992 -307.57h7.01953c34.1797 208.67 247.93 175.63 247.93 36.8701v-367.83h-242.08v299.21c-7.91016 -1.15039 -14.04 -8 -14.04 -16.2002v-283.01h-241.44v588.01z" />
    <glyph glyph-name="i" unicode="i" horiz-adv-x="267" 
d="M254.58 -0.30957h-242.08v467.6h242.08v-467.6zM4 557.261c0 44.71 58 80.96 129.54 80.96s129.54 -36.25 129.54 -80.96s-58 -80.9502 -129.54 -80.9502s-129.54 36.2402 -129.54 80.9502z" />
    <glyph glyph-name="i" unicode="&#xef;" horiz-adv-x="267" 
d="M254.58 -0.30957h-242.08v467.6h242.08v-467.6zM4 557.261c0 44.71 58 80.96 129.54 80.96s129.54 -36.25 129.54 -80.96s-58 -80.9502 -129.54 -80.9502s-129.54 36.2402 -129.54 80.9502z" />
    <glyph glyph-name="i" unicode="&#xee;" horiz-adv-x="267" 
d="M254.58 -0.30957h-242.08v467.6h242.08v-467.6zM4 557.261c0 44.71 58 80.96 129.54 80.96s129.54 -36.25 129.54 -80.96s-58 -80.9502 -129.54 -80.9502s-129.54 36.2402 -129.54 80.9502z" />
    <glyph glyph-name="i" unicode="&#xed;" horiz-adv-x="267" 
d="M254.58 -0.30957h-242.08v467.6h242.08v-467.6zM4 557.261c0 44.71 58 80.96 129.54 80.96s129.54 -36.25 129.54 -80.96s-58 -80.9502 -129.54 -80.9502s-129.54 36.2402 -129.54 80.9502z" />
    <glyph glyph-name="i" unicode="&#xec;" horiz-adv-x="267" 
d="M254.58 -0.30957h-242.08v467.6h242.08v-467.6zM4 557.261c0 44.71 58 80.96 129.54 80.96s129.54 -36.25 129.54 -80.96s-58 -80.9502 -129.54 -80.9502s-129.54 36.2402 -129.54 80.9502z" />
    <glyph glyph-name="j" unicode="j" horiz-adv-x="266" 
d="M-65 -84.0068c82.7822 22.6738 76.6523 49.5518 76.6523 148.669v403.186h242.081v-403.179c0 -134.53 -205.86 -199.373 -318.733 -208.669v59.9932zM3.14355 557.817c0.00683594 44.709 58.0059 80.9561 129.545 80.9561c71.5459 0 129.545 -36.248 129.545 -80.957
c0 -44.7148 -57.999 -80.9561 -129.545 -80.9561s-129.545 36.248 -129.545 80.957z" />
    <glyph glyph-name="k" unicode="k" horiz-adv-x="519" 
d="M261.11 239.75l36.4707 228.31h211.45v-145.74h-132.15v-7.01953c67.2402 -11.0195 132.15 -49.4395 132.15 -123.89v-190.95h-242.08v207.55c-7.91016 -1.15039 -14.0303 -8 -14.0303 -16.2002v-191.35h-240.92v587.83l0.629883 0.179688l182.91 50.1602
l0.679688 0.360352h57.8701v-399.24h7.01953z" />
    <glyph glyph-name="l" unicode="l" horiz-adv-x="266" 
d="M254.08 468.06v-467.602h-242.08v540.95l0.629883 0.330078v46.7305l182.91 50.1602l0.669922 0.360352h57.8701l0.650391 -170.93h-0.650391z" />
    <glyph glyph-name="m" unicode="m" horiz-adv-x="758" 
d="M470.3 335.45l7.02148 -0.00292969c31.8496 208.66 270.27 167.32 270.27 28.5605v-364.01h-242.08v303.71c-7.91016 -1.13965 -14.0303 -7.98926 -14.0303 -16.209v-287.5h-242.08v303.71c-7.91016 -1.13965 -14.0303 -7.98926 -14.0303 -16.209v-287.5h-223.37v467.6
h182.44v-132.15h7.01953c31.8496 208.66 268.84 167.32 268.84 28.5605v-28.5596z" />
    <glyph glyph-name="n" unicode="n" horiz-adv-x="502" 
d="M235.37 0.320312l-223.369 -0.0107422v467.6h182.44v-132.14h7.01953c34.1797 208.67 290.029 167.32 290.029 28.5605v-364.01h-242.08v303.7c-7.91016 -1.15039 -14.04 -8 -14.04 -16.21v-287.49z" />
    <glyph glyph-name="n" unicode="&#xf1;" horiz-adv-x="502" 
d="M235.37 0.320312l-223.369 -0.0107422v467.6h182.44v-132.14h7.01953c34.1797 208.67 290.029 167.32 290.029 28.5605v-364.01h-242.08v303.7c-7.91016 -1.15039 -14.04 -8 -14.04 -16.21v-287.49z" />
    <glyph glyph-name="o" unicode="o" horiz-adv-x="492" 
d="M485.48 339.86v-211.49c0 -185.94 -479.48 -185.94 -479.48 0v211.49c0 185.94 479.48 185.94 479.48 0zM262.11 66.7998v350.83c-7.90039 -1.13965 -14.0303 -8 -14.0303 -16.2002v-350.83c7.90039 1.13965 14.0303 8 14.0303 16.2002z" />
    <glyph glyph-name="o" unicode="&#xf8;" horiz-adv-x="492" 
d="M485.48 339.86v-211.49c0 -185.94 -479.48 -185.94 -479.48 0v211.49c0 185.94 479.48 185.94 479.48 0zM262.11 66.7998v350.83c-7.90039 -1.13965 -14.0303 -8 -14.0303 -16.2002v-350.83c7.90039 1.13965 14.0303 8 14.0303 16.2002z" />
    <glyph glyph-name="o" unicode="&#xf6;" horiz-adv-x="492" 
d="M485.48 339.86v-211.49c0 -185.94 -479.48 -185.94 -479.48 0v211.49c0 185.94 479.48 185.94 479.48 0zM262.11 66.7998v350.83c-7.90039 -1.13965 -14.0303 -8 -14.0303 -16.2002v-350.83c7.90039 1.13965 14.0303 8 14.0303 16.2002z" />
    <glyph glyph-name="o" unicode="&#xf5;" horiz-adv-x="492" 
d="M485.48 339.86v-211.49c0 -185.94 -479.48 -185.94 -479.48 0v211.49c0 185.94 479.48 185.94 479.48 0zM262.11 66.7998v350.83c-7.90039 -1.13965 -14.0303 -8 -14.0303 -16.2002v-350.83c7.90039 1.13965 14.0303 8 14.0303 16.2002z" />
    <glyph glyph-name="o" unicode="&#xf4;" horiz-adv-x="492" 
d="M485.48 339.86v-211.49c0 -185.94 -479.48 -185.94 -479.48 0v211.49c0 185.94 479.48 185.94 479.48 0zM262.11 66.7998v350.83c-7.90039 -1.13965 -14.0303 -8 -14.0303 -16.2002v-350.83c7.90039 1.13965 14.0303 8 14.0303 16.2002z" />
    <glyph glyph-name="o" unicode="&#xf3;" horiz-adv-x="492" 
d="M485.48 339.86v-211.49c0 -185.94 -479.48 -185.94 -479.48 0v211.49c0 185.94 479.48 185.94 479.48 0zM262.11 66.7998v350.83c-7.90039 -1.13965 -14.0303 -8 -14.0303 -16.2002v-350.83c7.90039 1.13965 14.0303 8 14.0303 16.2002z" />
    <glyph glyph-name="o" unicode="&#xf2;" horiz-adv-x="492" 
d="M485.48 339.86v-211.49c0 -185.94 -479.48 -185.94 -479.48 0v211.49c0 185.94 479.48 185.94 479.48 0zM262.11 66.7998v350.83c-7.90039 -1.13965 -14.0303 -8 -14.0303 -16.2002v-350.83c7.90039 1.13965 14.0303 8 14.0303 16.2002z" />
    <glyph glyph-name="p" unicode="p" horiz-adv-x="499" 
d="M235.37 -170.62l-223.368 -0.000976562v638.53h181.27l1.16992 -132.15h7.01953c34.1797 208.67 290.02 167.33 290.02 28.5605v-235.96c0 -70.7197 -57.3301 -128.05 -128.061 -128.05h-128.05v-170.93zM235.372 50.5986h14.0303v253.42
c-7.91016 -1.15039 -14.0303 -8 -14.0303 -16.2002v-237.22z" />
    <glyph glyph-name="q" unicode="q" horiz-adv-x="500" 
d="M487.48 467.91v-638.53h-223.37l-1.16016 307.57h-7.01953c-34.1797 -208.67 -247.93 -175.63 -247.93 -36.8701v239.78c0 70.7197 57.3301 128.05 128.061 128.05h351.419zM264.11 417.63l-14.0303 -0.000976562v-248.93c7.91016 1.15039 14.0303 8 14.0303 16.2002
v232.73z" />
    <glyph glyph-name="r" unicode="r" horiz-adv-x="418" 
d="M235.37 0.320312l-223.37 -0.00195312v467.59h182.44v-132.14h7.01953c3.57031 21.8604 9.2207 45.4805 18.1406 67.1709c49.3496 120 198.63 90.4805 198.63 -22.0195v-167.31h-168.82v90.4102c-7.91016 -1.15039 -14.04 -8 -14.04 -16.21v-287.49z" />
    <glyph glyph-name="s" unicode="s" horiz-adv-x="490" 
d="M247.07 259.3l129.41 -26.7998l7.7002 -1.59961c59.0498 -12.3398 100.29 -63.0898 100.29 -123.439v-3.55957c0 -70.5898 -66.21 -115.97 -135.76 -116.05c-67.1699 -0.0800781 -137.47 30.7295 -154.26 133.249h-7.01953v-120.78h-177.58v200.65h218.52v-50.2305
c0 -8.21973 6.12012 -15.0693 14.0303 -16.209v74.3896l-129.4 26.8096l-7.45996 1.5498c-59.1797 12.2598 -100.54 63.0693 -100.54 123.499v3.5498c0 70.5898 66.21 115.97 135.76 116.05c67.1699 0.0800781 137.47 -30.7295 154.26 -133.249h7.01953v120.78h177.58
v-200.66h-218.51v50.2402c0 8.20996 -6.12988 15.0596 -14.04 16.21v-74.4004z" />
    <glyph glyph-name="t" unicode="t" horiz-adv-x="293" 
d="M294.3 31.4697l-42.2207 -24.3799c-21.7803 -11.71 -42.8604 -15.9004 -59.4805 -17.7705c-88.7402 -9.96973 -182.601 37.1504 -182.601 114.73v393.71l0.299805 0.160156v46.9004l183.59 50.3398l0.330078 0.179688h57.8604v-85.46l0.320312 -41.8203h41.9004v-50.2803
h-42.2197v-306.97c0 -10.9199 5.41992 -20.2998 14.8701 -25.7598c8.66992 -5.00977 18.4902 -5.42969 27.3506 -1.25977v-52.3203z" />
    <glyph glyph-name="u" unicode="u" horiz-adv-x="502" 
d="M266.11 467.91l223.379 0.00195312v-467.59h-182.44v132.14h-7.01953c-34.1797 -208.67 -290.029 -167.32 -290.029 -28.5605v364.01h242.08v-303.7c7.91016 1.13965 14.0303 7.98926 14.0303 16.1992v287.5z" />
    <glyph glyph-name="u" unicode="&#xfc;" horiz-adv-x="502" 
d="M266.11 467.91l223.379 0.00195312v-467.59h-182.44v132.14h-7.01953c-34.1797 -208.67 -290.029 -167.32 -290.029 -28.5605v364.01h242.08v-303.7c7.91016 1.13965 14.0303 7.98926 14.0303 16.1992v287.5z" />
    <glyph glyph-name="u" unicode="&#xfb;" horiz-adv-x="502" 
d="M266.11 467.91l223.379 0.00195312v-467.59h-182.44v132.14h-7.01953c-34.1797 -208.67 -290.029 -167.32 -290.029 -28.5605v364.01h242.08v-303.7c7.91016 1.13965 14.0303 7.98926 14.0303 16.1992v287.5z" />
    <glyph glyph-name="u" unicode="&#xfa;" horiz-adv-x="502" 
d="M266.11 467.91l223.379 0.00195312v-467.59h-182.44v132.14h-7.01953c-34.1797 -208.67 -290.029 -167.32 -290.029 -28.5605v364.01h242.08v-303.7c7.91016 1.13965 14.0303 7.98926 14.0303 16.1992v287.5z" />
    <glyph glyph-name="u" unicode="&#xf9;" horiz-adv-x="502" 
d="M266.11 467.91l223.379 0.00195312v-467.59h-182.44v132.14h-7.01953c-34.1797 -208.67 -290.029 -167.32 -290.029 -28.5605v364.01h242.08v-303.7c7.91016 1.13965 14.0303 7.98926 14.0303 16.1992v287.5z" />
    <glyph glyph-name="v" unicode="v" horiz-adv-x="491" 
d="M116.47 0.30957l-127.471 467.599h242.08l13.5996 -49.8896l79.4004 -291.25l0.730469 2.7002c3.80957 13.9805 3.80957 26.8506 0 40.8311l-7.33984 26.9297l-60.1904 220.79l-5.84961 21.4404l7.75977 28.4502h242.08l-126.72 -464.86l-0.75 -2.74023h-257.33z" />
    <glyph glyph-name="w" unicode="w" horiz-adv-x="742" 
d="M116.46 0.299805l-127.46 467.606h242.08l13.5996 -49.8896l79.4004 -291.25l0.730469 2.7002c3.80957 13.9805 3.80957 26.8506 0 40.8311l-7.33984 26.9297l-60.1904 220.79l-5.84961 21.4404l7.75977 28.4502h222.78l13.5996 -49.8896l79.3896 -291.25
l0.730469 2.7002c3.82031 13.9805 3.82031 26.8506 0 40.8311l-7.33984 26.9297l-60.1904 220.79l-5.83984 21.4404l7.75977 28.4502h242.08l-126.72 -464.86l-0.75 -2.74023h-210.6l-20.1504 73.9004l-19.4004 -71.1699l-0.740234 -2.74023h-257.34z" />
    <glyph glyph-name="x" unicode="x" horiz-adv-x="503" 
d="M293.42 467.91h218.14l-108.79 -233.8l108.79 -233.8h-288.53l-84.6504 181.92l-0.269531 -0.599609c-4.36035 -9.41016 -4.37988 -19.2598 0 -28.6602l71.0303 -152.66h-218.14l108.79 233.8l-108.79 233.8h288.53l84.6504 -181.92l0.269531 0.599609
c4.36035 9.41016 4.37988 19.2598 0 28.6699z" />
    <glyph glyph-name="y" unicode="y" horiz-adv-x="491" 
d="M120.858 -16.6797l-131.928 483.958h242.08l13.5996 -49.8896l79.4004 -291.24l0.740234 2.69043c3.7998 13.9805 3.7998 26.8506 0 40.8311l-7.34961 26.9297l-60.1904 220.79l-5.83984 21.4502l7.75977 28.4502h242.07l-103.15 -378.4v0.00976562l-31.6504 -116.12
l-273.71 -71.3398c-9.2002 -2.40039 -6.90039 -13.3506 3.44922 -10.6602l15.9102 4.15039l322.84 84.1504l32.6104 8.5l0.889648 -1.48047v-200.57c-84.4902 -27.3896 -188.021 -44.5596 -277.23 -44.5293c-37.7998 0.00976562 -73.0303 3.59961 -103.141 11.29
c-86.7002 22.1201 -139.71 105.89 -69.6104 169.109c22.4297 20.2305 55.3594 30.9004 90.6094 38.7803l103.36 27.04l17.2002 4.5v11.5l-106.6 -27.6797z" />
    <glyph glyph-name="y" unicode="&#xff;" horiz-adv-x="491" 
d="M120.858 -16.6797l-131.928 483.958h242.08l13.5996 -49.8896l79.4004 -291.24l0.740234 2.69043c3.7998 13.9805 3.7998 26.8506 0 40.8311l-7.34961 26.9297l-60.1904 220.79l-5.83984 21.4502l7.75977 28.4502h242.07l-103.15 -378.4v0.00976562l-31.6504 -116.12
l-273.71 -71.3398c-9.2002 -2.40039 -6.90039 -13.3506 3.44922 -10.6602l15.9102 4.15039l322.84 84.1504l32.6104 8.5l0.889648 -1.48047v-200.57c-84.4902 -27.3896 -188.021 -44.5596 -277.23 -44.5293c-37.7998 0.00976562 -73.0303 3.59961 -103.141 11.29
c-86.7002 22.1201 -139.71 105.89 -69.6104 169.109c22.4297 20.2305 55.3594 30.9004 90.6094 38.7803l103.36 27.04l17.2002 4.5v11.5l-106.6 -27.6797z" />
    <glyph glyph-name="y" unicode="&#xfd;" horiz-adv-x="491" 
d="M120.858 -16.6797l-131.928 483.958h242.08l13.5996 -49.8896l79.4004 -291.24l0.740234 2.69043c3.7998 13.9805 3.7998 26.8506 0 40.8311l-7.34961 26.9297l-60.1904 220.79l-5.83984 21.4502l7.75977 28.4502h242.07l-103.15 -378.4v0.00976562l-31.6504 -116.12
l-273.71 -71.3398c-9.2002 -2.40039 -6.90039 -13.3506 3.44922 -10.6602l15.9102 4.15039l322.84 84.1504l32.6104 8.5l0.889648 -1.48047v-200.57c-84.4902 -27.3896 -188.021 -44.5596 -277.23 -44.5293c-37.7998 0.00976562 -73.0303 3.59961 -103.141 11.29
c-86.7002 22.1201 -139.71 105.89 -69.6104 169.109c22.4297 20.2305 55.3594 30.9004 90.6094 38.7803l103.36 27.04l17.2002 4.5v11.5l-106.6 -27.6797z" />
    <glyph glyph-name="z" unicode="z" horiz-adv-x="453" 
d="M5.00977 467.91h442.51v-83.8604l-75.4102 -149.94h0.280273c-8.29004 -17.0303 -16.4697 -34.1299 -24.4893 -51.3604l-50.8096 -109.2c-4.37988 -9.40039 -4.36035 -19.25 0 -28.6602l0.280273 -0.599609l64.4199 138.46h85.7197v-182.44h-442.51v83.8604
l75.4102 149.94h-0.280273c8.29004 17.0303 16.4697 34.1299 24.4893 51.3604l50.8096 109.2c4.37988 9.40039 4.36035 19.25 0 28.6602l-0.280273 0.599609l-64.4199 -138.46h-85.7197v182.44z" />
    <glyph glyph-name="braceleft" unicode="{" horiz-adv-x="325" 
d="M316.562 521.762c-1.57617 -82.9033 -65.2881 -157.271 -163.004 -194.22c97.7158 -36.9414 161.428 -111.31 163.004 -194.213h0.0400391v-219.892c0 -45.2471 53.6143 -61.5352 61.5225 -62.6807v-49.2354c-174.584 0 -303.604 102.56 -303.604 221.986v216.739
c0 45.2471 -53.6143 61.5352 -61.5225 62.6807v49.2354c7.90137 1.14551 61.5225 17.4336 61.5225 62.6807v216.739c0 119.434 129.02 221.986 303.604 221.986v-49.2354c-7.90137 -1.13867 -61.5225 -17.4336 -61.5225 -62.6807v-219.892h-0.0400391z" />
    <glyph glyph-name="verticalbar" unicode="|" horiz-adv-x="127" 
d="M113.828 -186.927h-100.828v1028.94h100.828v-1028.94z" />
    <glyph glyph-name="braceright" unicode="}" horiz-adv-x="325" 
d="M249.606 414.851c0 -45.2539 53.6211 -61.542 61.5293 -62.6875v-49.2354c-7.9082 -1.14551 -61.5293 -17.4336 -61.5293 -62.6807v-216.739c0 -119.434 -129.02 -221.986 -303.604 -221.986v49.2354c7.90137 1.14551 61.5225 17.4336 61.5225 62.6807v219.892h0.0400391
c1.57617 82.9102 65.2881 157.271 163.004 194.22c-97.7158 36.9414 -161.428 111.31 -163.004 194.213h-0.0400391v219.892c0 45.2471 -53.6143 61.5352 -61.5225 62.6807v49.2354c174.584 0 303.604 -102.553 303.604 -221.986v-216.732z" />
    <glyph glyph-name="asciitilde" unicode="~" horiz-adv-x="556" 
d="M43.1924 338.047c81.3271 -42.5596 190.063 57.9189 266.938 102.304c60.7676 35.082 130.953 30.4746 166.035 -30.2861l66.5068 -115.184l-30.1924 -17.4336c-81.3271 42.5596 -190.063 -57.9189 -266.944 -102.304
c-60.7676 -35.082 -130.953 -30.4746 -166.035 30.2861l-66.5 115.184z" />
    <glyph glyph-name="nonbreakingspace" unicode="&#xa0;" horiz-adv-x="284" 
 />
    <glyph glyph-name="exclamdown" unicode="&#xa1;" horiz-adv-x="266" 
d="M132.54 318.3c-71.5498 0 -129.55 36.25 -129.54 80.96c0 44.7002 57.9902 80.9502 129.54 80.9502c71.54 0 129.54 -36.25 129.54 -80.9502c0 -44.71 -58 -80.96 -129.54 -80.96zM57.9697 289.89h149.14l46.4697 -242.08v-234.74h-242.09v234.74z" />
    <glyph glyph-name="cent" unicode="&#xa2;" horiz-adv-x="494" 
d="M486.487 244.881l-223.374 -0.00195312v171.519c-7.90137 -1.14551 -14.0312 -8.00293 -14.0312 -16.208v-350.824c7.90137 1.13867 14.0312 7.99609 14.0312 16.2012v165.281h223.367v-103.705c0 -121.023 -203.092 -163.239 -344.924 -126.729l-39.4277 -68.2852
l-43.5498 25.1465l34.5771 59.8926c-51.1143 23.0781 -86.1562 59.7305 -86.1562 109.977v211.485c0 121.017 203.099 163.246 344.924 126.729l39.4277 68.2852l43.5498 -25.1396l-34.5771 -59.8916c51.1143 -23.0918 86.1631 -59.7305 86.1631 -109.983v-93.748z" />
    <glyph glyph-name="sterling" unicode="&#xa3;" horiz-adv-x="550" 
d="M544.269 470.344l-223.37 -0.00390625v135.318c-7.90137 -1.13867 -14.0312 -7.99609 -14.0312 -16.2012v-181.098h158.559v-69.6934h-158.559v-22.4248h158.559v-69.7002h-158.559v-59.582c46.6279 2.47266 101.926 25.1465 135.836 33.2305
c45.3623 10.8115 101.569 -19.0771 101.569 -91.5996v-135.655l-22.5391 -5.36914c-44.8301 71.4922 -133.688 26.3184 -191.081 12.6367h-253.397v182.438h120.781v7.01953c-1.59668 0.255859 -3.17969 0.532227 -4.74219 0.822266h-0.0136719
c-1.5625 0.283203 -3.10547 0.580078 -4.62793 0.896484l-0.0205078 0.00683594c-1.51562 0.30957 -3.02441 0.632812 -4.5127 0.969727l-0.0332031 0.00683594c-1.48828 0.336914 -2.9502 0.680664 -4.40527 1.04395l-0.0400391 0.00683594
c-1.44824 0.357422 -2.87598 0.727539 -4.29102 1.11133l-0.0537109 0.0136719c-0.47168 0.12793 -0.922852 0.262695 -1.3877 0.390625c-0.957031 0.269531 -1.91406 0.532227 -2.85742 0.808594c-1.37402 0.404297 -2.73438 0.822266 -4.0752 1.24707
l-0.0673828 0.0205078c-1.34082 0.424805 -2.66113 0.862305 -3.96777 1.31348l-3.32129 1.17871l-0.620117 0.222656l-0.0878906 0.0332031c-1.2666 0.47168 -2.51953 0.950195 -3.75879 1.44238c-1.17188 0.464844 -2.33691 0.943359 -3.48926 1.42871l-0.255859 0.107422
c-0.734375 0.30957 -1.45508 0.639648 -2.18262 0.956055c-0.485352 0.21582 -0.977539 0.424805 -1.46289 0.640625l-0.107422 0.046875c-1.16504 0.525391 -2.31738 1.06445 -3.45605 1.61035l-0.107422 0.0537109c-1.13184 0.545898 -2.25 1.09863 -3.35449 1.66406
l-0.0400391 0.0205078c-0.720703 0.370117 -1.42773 0.753906 -2.1416 1.13086l-1.23242 0.65332c-1.8457 1.00391 -3.63086 2.04102 -5.38867 3.0918c-0.350586 0.208984 -0.708008 0.417969 -1.05176 0.626953l-1.4082 0.889648
c-0.592773 0.376953 -1.19238 0.74707 -1.77832 1.12402l-0.046875 0.0332031c-0.976562 0.625977 -1.93945 1.26562 -2.88965 1.91895l-0.0332031 0.0273438c-0.55957 0.383789 -1.10547 0.774414 -1.6582 1.16504c-0.4375 0.302734 -0.881836 0.612305 -1.3125 0.921875
l-0.0605469 0.046875c-0.916016 0.666992 -1.81836 1.33398 -2.70801 2.01465l-0.0537109 0.046875c-0.55957 0.424805 -1.10547 0.862305 -1.65137 1.29297c-0.370117 0.290039 -0.74707 0.580078 -1.11035 0.876953
c-0.458008 0.363281 -0.902344 0.740234 -1.34668 1.11035c-0.458008 0.370117 -0.916016 0.74707 -1.36035 1.12402c-0.390625 0.330078 -0.767578 0.666992 -1.15137 1.00391c-0.47168 0.417969 -0.957031 0.829102 -1.42188 1.24707
c-0.539062 0.485352 -1.06445 0.970703 -1.58984 1.46289c-0.296875 0.276367 -0.599609 0.552734 -0.896484 0.829102c-0.458008 0.424805 -0.902344 0.862305 -1.34668 1.2998c-0.376953 0.363281 -0.753906 0.720703 -1.12402 1.09082
c-0.363281 0.363281 -0.720703 0.740234 -1.07812 1.10352c-0.424805 0.430664 -0.849609 0.855469 -1.26758 1.29297c-0.336914 0.350586 -0.660156 0.708008 -0.990234 1.06543c-0.4375 0.464844 -0.875 0.929688 -1.2998 1.40137
c-0.316406 0.34375 -0.619141 0.701172 -0.928711 1.05176c-0.411133 0.47168 -0.829102 0.936523 -1.2334 1.4082c-0.464844 0.539062 -0.90918 1.07812 -1.36035 1.62402l-0.727539 0.875977c-0.424805 0.525391 -0.835938 1.05078 -1.25391 1.57617l-0.81543 1.03027
c-0.350586 0.451172 -0.6875 0.90918 -1.03125 1.36719h-80.9434v69.6934h53.6074l-0.12793 0.929688l-0.167969 1.2666l-0.188477 1.61719l-0.181641 1.61719l-0.12793 1.23926l-0.188477 1.87988l-0.134766 1.63672l-0.121094 1.46191l-0.141602 2.08789
l-0.0673828 1.00391l-0.107422 2.00781l-0.0605469 1.20605c-0.0332031 0.713867 -0.0537109 1.43457 -0.0810547 2.15527l-0.0332031 0.916016l-0.0332031 1.4082h-51.8486v69.6934h51.7881v119.528c0 185.941 479.48 185.941 479.48 0v-57.5547z" />
    <glyph glyph-name="currency" unicode="&#xa4;" horiz-adv-x="494" 
d="M400.341 448.666c51.1143 -23.085 86.1572 -59.7295 86.1572 -109.982v-211.485c0 -50.2529 -35.0488 -86.9053 -86.1641 -109.983l34.5771 -59.8916l-43.5498 -25.1465l-39.4277 68.2852c-65.7393 -16.9219 -144.621 -16.9287 -210.367 -0.000976562l-39.4277 -68.2852
l-43.5498 25.1465l34.5771 59.8916c-51.1152 23.0918 -86.1641 59.7305 -86.1641 109.983v211.485c0 50.2529 35.0488 86.9053 86.1641 109.983l-34.5771 59.8926l43.5498 25.1396l39.4277 -68.2852c65.7461 16.9219 144.628 16.9287 210.374 0l39.4277 68.2852
l43.5498 -25.1396zM263.131 65.623v350.831c-7.90137 -1.13867 -14.0312 -7.99609 -14.0312 -16.2012v-350.831c7.90137 1.13867 14.0312 7.99609 14.0312 16.2012z" />
    <glyph glyph-name="yen" unicode="&#xa5;" horiz-adv-x="539" 
d="M525.272 654.884l-108.476 -397.903h78.5449v-69.6934h-105.166v-22.4248h105.173v-69.6934h-105.173v-94.9609h-242.081v94.9609h-105.173v69.6934h105.173v22.4248h-105.173v69.6934h78.5449l-108.467 397.904h242.081l13.6006 -49.8887l79.3936 -291.249
l0.734375 2.69434c3.8125 13.9775 3.8125 26.8506 0 40.8281l-7.34277 26.9316l-60.1885 220.794l-5.84668 21.4346l7.75977 28.4541h242.081z" />
    <glyph glyph-name="brokenbar" unicode="&#xa6;" horiz-adv-x="123" 
d="M11 841.848h100.828v-431.478h-100.828v431.478zM11 244.375h100.828v-431.478h-100.828v431.478z" />
    <glyph glyph-name="section" unicode="&#xa7;" horiz-adv-x="560" 
d="M536.228 841.85l-0.000976562 -281.611h-218.52v74.0596c0 11.3301 -6.12012 20.7803 -14.0303 22.3506v-107.39l128.46 -38.6699c182.94 -52.0303 165.48 -335.891 -55.9199 -335.891c-24.8096 0 -49.7295 2.2998 -72.5391 10.1299v-9.83008l128.46 -38.6699
c178.98 -47.9502 169.28 -335.891 -55.9199 -335.891c-79.7998 0 -160.84 23.7695 -168.79 179.13h-7.01953v-166.67h-177.591v281.61h218.52v-74.0596c0 -11.3301 6.12988 -20.7803 14.0303 -22.3604v107.39l-128.46 38.6699
c-182.93 52.0303 -165.47 335.891 55.9307 335.891c24.7998 0 49.7197 -2.29004 72.5293 -10.1201v9.82031l-128.46 38.6699c-178.97 47.96 -169.27 335.9 55.9307 335.9c79.7998 0 160.83 -23.7695 168.78 -179.119h7.01953v166.66h177.59zM236.736 274.658
c82.6904 82.6904 24.2705 24.2686 106.961 106.959c-6.40039 4.78027 -15.5801 4.27051 -21.3799 -1.53906c-82.6904 -82.6797 -24.2705 -24.2695 -106.961 -106.949c6.40039 -4.79004 15.5801 -4.28027 21.3799 1.5293z" />
    <glyph glyph-name="dieresis" unicode="&#xa8;" horiz-adv-x="479" 
d="M120.188 854.31c59.1982 0 107.188 -29.9902 107.188 -66.9854c0 -23.8594 -19.96 -44.8096 -50.0303 -56.6719c-16.5439 -6.53418 -36.1465 -10.3135 -57.1641 -10.3135c-21.0107 0 -40.6201 3.78613 -57.1641 10.3135
c-30.0576 11.8623 -50.0176 32.8125 -50.0176 56.6719c0 36.9951 47.9893 66.9854 107.188 66.9854zM465.65 787.324c0 -23.8594 -19.959 -44.8096 -50.0293 -56.6719c-16.5439 -6.53418 -36.1465 -10.3135 -57.1641 -10.3135c-21.0107 0 -40.6201 3.78613 -57.1641 10.3135
c-30.0576 11.8623 -50.0176 32.8125 -50.0176 56.6719c0 36.9951 47.9893 66.9854 107.188 66.9854s107.188 -29.9902 107.188 -66.9854z" />
    <glyph glyph-name="copyright" unicode="&#xa9;" horiz-adv-x="979" 
d="M776.289 754.317c104.506 0 189.996 -85.4971 189.996 -189.997v-473.553c0 -104.5 -85.4902 -189.997 -189.996 -189.997h-574.293c-104.507 0 -189.997 85.4971 -189.997 189.997v473.553c0 104.5 85.4971 189.997 189.997 189.997h574.293zM742.918 39.209v576.671
c0 20.249 -16.5645 36.8135 -36.8135 36.8135h-433.923c-20.249 0 -36.8135 -16.5645 -36.8135 -36.8135v-576.671c0 -20.249 16.5645 -36.8135 36.8135 -36.8135h433.923c20.249 0 36.8135 16.5645 36.8135 36.8135zM541.908 605.304l167.989 0.000976562v-263.543
h-205.672v135.911c0 6.96484 -5.63867 12.7783 -12.9209 13.748v-399.864c7.27539 0.969727 12.9199 6.7832 12.9199 13.748v224.547h205.672v-172.3c0 -157.776 -441.501 -157.776 -441.501 0v359.857c0 59.8926 60.9697 98.4033 125.012 98.4707
c61.8457 0.0673828 126.581 -26.0693 142.041 -113.062h6.45996v102.485z" />
    <glyph glyph-name="ordfeminine" unicode="&#xaa;" horiz-adv-x="333" 
d="M164.66 728.975l-154.448 0.000976562v110.569h110.468v-55.0088h4.6543c37.999 86.9717 201.73 86.2236 201.73 -13.7354v-241.576h-121.078v87.6992h-4.6543c-22.6738 -138.396 -197.332 -111.128 -197.332 -18.9561v36.7061
c0.0605469 46.4463 37.4268 84.9844 84.9844 84.9844h89.8418v62.1553c-5.24707 -0.754883 -14.166 -5.30176 -14.166 -10.751v-42.0879zM164.661 637.989c5.25391 0.760742 14.166 5.31445 14.166 10.7578v37.541h-14.166v-48.2988z" />
    <glyph glyph-name="guillemotleft" unicode="&#xab;" horiz-adv-x="692" 
d="M380.389 537.295l-89.9629 -209.922l89.9629 -209.922v-117.42h-277.541v102.546c-24.9111 74.9609 -63.9004 150.191 -89.8486 224.796c25.9482 74.6045 64.9375 149.835 89.8486 224.796v102.546h277.541v-117.42zM686.046 537.295l-89.9629 -209.922l89.9629 -209.922
v-117.42h-277.534v102.546c-24.9111 74.9609 -63.9004 150.198 -89.8486 224.796c25.9482 74.6045 64.9375 149.835 89.8486 224.796v102.546h277.534v-117.42z" />
    <glyph glyph-name="logicalnot" unicode="&#xac;" horiz-adv-x="397" 
d="M288.962 553.886l-287.962 0.000976562v100.828h388.79v-229.896h-100.828v129.066z" />
    <glyph glyph-name="softhyphen" unicode="&#xad;" horiz-adv-x="0" 
 />
    <glyph glyph-name="registered" unicode="&#xae;" horiz-adv-x="979" 
d="M593.703 588.894c79.5215 0 110.558 -56.4102 110.558 -118.175v-135.068c0 -87.208 -123.954 -121.058 -180.148 -46.2246h-10.8115c43.2803 -87.8545 190.952 -51.8018 190.952 -51.8018v-170.979h-91.8555c-68.373 0 -125.355 33.8633 -125.355 94.6377v115.217
c0 6.54785 -4.45312 12.0176 -11.5469 12.9268v-0.363281l-1.04395 -222.411h-200.424v522.242h319.676zM487.043 353.555l-0.000976562 195.224h-12.5898v-182.297c0 -6.54785 5.49707 -12.0176 12.5908 -12.9268zM776.29 754.544
c104.5 0 189.996 -85.4971 189.996 -189.997v-473.553c0 -104.5 -85.4971 -189.997 -189.997 -189.997h-574.293c-104.506 0 -189.996 85.4971 -189.996 189.997v473.553c0 104.5 85.4902 189.997 189.997 189.997h574.293zM742.911 39.4355l0.00683594 576.671
c0 20.249 -16.5645 36.8135 -36.8135 36.8135h-433.923c-20.249 0 -36.8135 -16.5645 -36.8135 -36.8135v-576.671c0 -20.249 16.5645 -36.8135 36.8135 -36.8135h433.916c20.249 0 36.8135 16.5645 36.8135 36.8135z" />
    <glyph glyph-name="overscore" unicode="&#xaf;" horiz-adv-x="530" 
d="M516.812 843.531v-98.1406h-503.812v98.1406h503.812z" />
    <glyph glyph-name="degree" unicode="&#xb0;" horiz-adv-x="478" 
d="M478.48 714.229v-47.0527c0 -185.941 -479.48 -185.935 -479.48 0v47.0527c0 185.935 479.48 185.941 479.48 0zM255.113 605.614v186.393c-7.90137 -1.14551 -14.0312 -8.00293 -14.0312 -16.208v-186.393c7.90137 1.14551 14.0312 8.00293 14.0312 16.208z" />
    <glyph glyph-name="plusminus" unicode="&#xb1;" horiz-adv-x="351" 
d="M343.947 434.423v-153.162h-91.8896v-91.8896h-153.162v91.8896h-91.8965v153.162h91.8965v91.8896h153.162v-91.8896h91.8896zM7 153.38h336.947v-153.162h-336.947v153.162z" />
    <glyph glyph-name="twosuperior" unicode="&#xb2;" horiz-adv-x="254" 
d="M199.324 687.5l-61.3008 -18.458v-80.1748c3.77246 0.754883 6.69629 5.26172 6.69629 10.6709v64.2773h104.277v-134.389h-244.998v35.1494c0 76.1064 5.56445 107.518 71.418 126.346l39.5557 11.3037v51.249c-3.77246 -0.754883 -6.69629 -5.26172 -6.69629 -10.6709
v-35.3447h-104.277v134.389h84.7422v-79.5352h3.34766c3.79297 74.1396 42.4658 85.4766 80.5459 85.4766c107.471 0 112.099 -137.406 26.6895 -160.289z" />
    <glyph glyph-name="threesuperior" unicode="&#xb3;" horiz-adv-x="264" 
d="M115.974 617.8l0.000976562 51.251h-66.332v33.1758h66.3389v51.249c-3.77246 -0.754883 -6.69629 -5.26172 -6.69629 -10.6709v-33.8838h-104.277v132.927h84.749v-79.5283h3.34766c3.79297 74.1328 42.4658 85.4766 80.5459 85.4766
c52.1523 0 85.7998 -35.7627 86.3857 -78.4502c0.754883 -55.1562 -36.8945 -79.4004 -88.3936 -82.0342v-3.35449c50.7236 -2.59375 87.665 -25.5977 88.3926 -79.7705c0.585938 -43.6777 -33.3242 -80.7139 -86.3926 -80.7139
c-38.0801 0 -76.7529 11.3438 -80.5459 85.4834h-3.34766v-79.5352h-84.749v132.927h104.277v-33.877c0 -5.40918 2.92383 -9.91602 6.69629 -10.6709z" />
    <glyph glyph-name="acute" unicode="&#xb4;" horiz-adv-x="273" 
d="M259.956 699.232l-142.728 -168.427h-118.229l86.8975 168.427h174.059z" />
    <glyph glyph-name="paragraph" unicode="&#xb6;" horiz-adv-x="737" 
d="M500.512 604.428l-14.0322 0.000976562v-791.531h-223.367v456.961h-7.01953c-34.1797 -208.669 -249.094 -167.328 -249.094 -28.5615v265.28c0 77.4199 34.5771 148.137 123.206 148.137h593.674v-841.811h-223.367v791.524z" />
    <glyph glyph-name="periodcentered" unicode="&#xb7;" horiz-adv-x="221" 
d="M217.375 327.372c0 -23.8662 -19.959 -44.8096 -50.0225 -56.6719c-16.5439 -6.53418 -36.1465 -10.3135 -57.1641 -10.3135s-40.627 3.7793 -57.1709 10.3135c-30.0576 11.8623 -50.0176 32.8125 -50.0176 56.6719c0 36.9951 47.9893 66.9854 107.188 66.9854
s107.188 -29.9902 107.188 -66.9854z" />
    <glyph glyph-name="cedilla" unicode="&#xb8;" horiz-adv-x="145" 
d="M165.045 -77.4365c0 -148.218 -387.044 -148.203 -387.044 0.000976562v47.3223h192.96v-109.316c6.30469 0.916016 16.0391 6.38574 16.0391 12.9199v103.139l21.3604 38.8955h137.285l-10.9805 -28.9932c18.3896 -16.0186 30.3799 -36.9414 30.3799 -63.9678z" />
    <glyph glyph-name="onesuperior" unicode="&#xb9;" horiz-adv-x="125" 
d="M-34 841.848h153.594v-312.421h-115.521v248.171h-38.0732v64.25z" />
    <glyph glyph-name="ordmasculine" unicode="&#xba;" horiz-adv-x="490" 
d="M484.48 714.229v-177.145c0 -185.947 -479.48 -185.94 -479.48 -0.00585938v177.15c0 185.935 479.48 185.941 479.48 0zM261.113 475.516v316.489c-7.90137 -1.14551 -14.0312 -8.00293 -14.0312 -16.208v-316.489c7.90137 1.14551 14.0312 8.00977 14.0312 16.208z" />
    <glyph glyph-name="guillemotright" unicode="&#xbb;" horiz-adv-x="692" 
d="M400.62 327.372l-89.9629 209.922v117.42h277.534v-102.546c24.9111 -74.9609 63.9004 -150.191 89.8486 -224.796c-25.9482 -74.6045 -64.9375 -149.835 -89.8486 -224.796v-102.546h-277.534v117.42zM94.9619 327.372l-89.9629 209.922v117.42h277.534v-102.546
c24.9111 -74.9609 63.9004 -150.191 89.8486 -224.796c-25.9482 -74.5977 -64.9375 -149.835 -89.8486 -224.796v-102.546h-277.534v117.42z" />
    <glyph glyph-name="onequarter" unicode="&#xbc;" horiz-adv-x="744" 
d="M341.992 654.472h242.082c-205.321 -542.444 -165.867 -438.214 -247.801 -654.677h-242.081c205.335 542.491 165.854 438.187 247.8 654.677zM514.219 279.659v61.3799h143.085v-43.833c0 -7.33594 -1.06445 -14.1055 -2.9502 -20.5928l-3.47559 -9.67285
l-12.6914 -35.3184h0.148438c-4.31836 -12.4287 -2.41211 -6.56152 -6.58887 -19.1377l-26.4873 -79.6904c-2.2832 -6.85742 -2.26953 -14.0518 0.000976562 -20.916l0.141602 -0.4375l33.5869 101.051l19.3262 58.3828h51.0947v-139.696h21.1992v-70.1787h-21.1992
v-61.2061h-126.184v61.2061h-123.745v61.2061c16.7324 46.5615 32.751 92.0381 48.5068 137.945c3.50977 7.46387 5.70605 13.6279 6.15039 17.9727c0.0537109 0.539062 0.0810547 1.05078 0.0810547 1.53613zM13.001 660.438l167.78 -0.000976562v-341.259h-126.19v271.081
h-41.5898v70.1787z" />
    <glyph glyph-name="onehalf" unicode="&#xbd;" horiz-adv-x="725" 
d="M579.271 152.304l-0.000976562 -87.5762c4.12305 0.822266 7.31641 5.74609 7.31641 11.6533v70.2051h113.903v-146.79h-267.611v38.3965c0 83.1318 6.07617 117.446 78.0127 138.012l43.2061 12.3477v55.9785c-4.12305 -0.822266 -7.31641 -5.75293 -7.31641 -11.6543
v-38.6055h-113.91v114.133l-116.813 -308.608h-242.081c205.335 542.491 165.86 438.187 247.8 654.677h242.081l-118.632 -313.411h80.209v-86.8711h3.6582c4.14258 80.9766 46.3857 93.3711 87.9824 93.3711c117.393 0 122.451 -150.091 29.1543 -175.089zM12.999 660.442
l167.78 -0.000976562v-341.259h-126.19v271.081h-41.5898v70.1787z" />
    <glyph glyph-name="threequarters" unicode="&#xbe;" horiz-adv-x="819" 
d="M134.232 415.712l0.00195312 55.9775h-72.4688v36.2412h72.4619v55.9785c-4.12305 -0.822266 -7.31641 -5.74609 -7.31641 -11.6533v-37.0088h-113.91v145.193h92.5693v-86.8779h3.6582c4.14258 80.9834 46.3857 93.3711 87.9824 93.3711
c56.9688 0 93.7217 -39.0635 94.3613 -85.6914c0.828125 -60.2422 -40.2969 -86.7227 -96.5518 -89.6055v-3.6582c55.4189 -2.83594 95.7627 -27.9619 96.5576 -87.1328c0.646484 -47.7061 -36.3965 -88.1641 -94.3623 -88.1641
c-41.5967 0 -83.8398 12.3945 -87.9824 93.3711h-3.6582v-86.8711h-92.5693v145.193h113.91v-37.0088c0 -5.90137 3.19336 -10.832 7.31641 -11.6543zM589.444 279.659l-0.000976562 61.3799h143.099v-43.833c0 -7.33594 -1.06445 -14.1055 -2.9502 -20.5928
l-3.47559 -9.67285l-12.6914 -35.3184h0.148438c-4.32422 -12.4287 -2.41113 -6.56152 -6.58789 -19.1377l-26.4873 -79.6904c-2.27637 -6.85742 -2.26953 -14.0518 0.000976562 -20.916l0.141602 -0.4375l33.5801 101.051l19.3262 58.3828h51.0947v-139.696h21.1992
v-70.1787h-21.1992v-61.2061h-126.184v61.2061h-123.752v61.2061c16.7324 46.5615 32.751 92.0381 48.5068 137.945c3.50977 7.46387 5.70605 13.6279 6.15039 17.9727c0.0537109 0.539062 0.0810547 1.05078 0.0810547 1.53613zM169.417 -0.206055
c205.335 542.491 165.854 438.187 247.801 654.677h242.081c-205.321 -542.444 -165.867 -438.214 -247.801 -654.677h-242.081z" />
    <glyph glyph-name="questiondown" unicode="&#xbf;" horiz-adv-x="560" 
d="M201.831 155.43l0.000976562 134.038h213.371v-82.0137c0 -43.7383 -27.7598 -80.8008 -69.7334 -93.1016l-31.1016 -9.11426v-107.39c7.9082 1.57617 14.0312 11.0273 14.0312 22.3574v74.0654h218.518v-281.609h-177.581v166.662h-7.01953
c-7.94922 -155.352 -88.9932 -179.124 -168.784 -179.124c-225.2 0 -234.907 287.935 -55.9248 335.89zM178.976 398.845c0 28.8379 24.1289 54.1533 60.458 68.4951c19.9932 7.89453 43.6846 12.4619 69.0869 12.4619c25.3955 0 49.0869 -4.56738 69.0869 -12.4619
c36.3223 -14.3418 60.4512 -39.6562 60.4512 -68.4941c0 -44.709 -57.999 -80.957 -129.538 -80.957c-71.5459 0 -129.545 36.2412 -129.545 80.9561z" />
    <glyph glyph-name="multiply" unicode="&#xd7;" horiz-adv-x="373" 
d="M294.582 326.165l64.9775 -64.9766l-108.299 -108.306l-64.9775 64.9775l-64.9775 -64.9775l-108.299 108.306l64.9775 64.9775l-64.9844 64.9775l108.306 108.299l64.9775 -64.9775l64.9775 64.9775l108.299 -108.306z" />
    <glyph glyph-name="germandbls" unicode="&#xdf;" horiz-adv-x="496" 
d="M374.188 389.879c65.6855 -5.41602 117.291 -59.9951 117.291 -127.095v-158.996c0 -70.5889 -66.2109 -115.971 -135.763 -116.052c-0.404297 0.00683594 -0.801758 0.00683594 -1.20605 0.00683594c-43.7383 0.283203 -88.6553 18.5049 -119.144 59.6504v-47.1875
h-223.367v527.739c0 88.2314 105.133 139.831 234.462 139.4c107.208 -0.357422 242.741 -33.2842 243.301 -139.569c0.30957 -58.7871 -35.8574 -118.295 -115.574 -130.043v-7.85449zM249.398 134.418v232.806h-14.0312v-216.604
c0 -8.20508 6.12305 -15.0557 14.0312 -16.2012zM249.398 446.806v73.8701c-7.9082 -1.14551 -14.0312 -7.99609 -14.0312 -16.208v-57.6621h14.0312z" />
    <glyph glyph-name="divide" unicode="&#xf7;" horiz-adv-x="339" 
d="M337.947 341.8v-153.162h-336.947v153.162h336.947zM169.48 542.938c71.5391 0 129.538 -36.2422 129.538 -80.957c0 -28.8379 -24.1289 -54.1523 -60.4512 -68.4941c-19.9932 -7.89453 -43.6846 -12.4619 -69.0869 -12.4619
c-25.3955 0 -49.0938 4.56738 -69.0869 12.4619c-36.3291 14.3418 -60.4512 39.6562 -60.4512 68.4941c0 44.709 57.999 80.957 129.538 80.957zM299.019 68.4492c0 -28.8379 -24.1289 -54.1602 -60.4512 -68.4951c-19.9932 -7.89453 -43.6846 -12.4619 -69.0869 -12.4619
c-25.3955 0 -49.0938 4.56738 -69.0869 12.4619c-36.3291 14.3418 -60.4512 39.6562 -60.4512 68.4941c0 44.709 57.999 80.957 129.538 80.957s129.538 -36.2412 129.538 -80.9561z" />
    <glyph glyph-name="florin" unicode="&#x192;" horiz-adv-x="281" 
d="M47.7891 594.01c14.25 180.83 310.062 187.934 295.832 7.11328l-2.49023 -31.6299h-67.2197l3.86035 48.9297c0.639648 8.20996 -4.9502 15.0596 -12.7598 16.21l-6.24023 -79.1699h81.25l-3.95996 -50.29h-53.1797l-43.5596 -552.87
c-14.25 -180.82 -310.07 -187.94 -295.82 -7.11035l2.49023 31.6396h67.2197l-3.86035 -48.9404c-0.650391 -8.2002 4.93945 -15.0498 12.749 -16.2002l6.24023 79.1699h-28.0703l40.5195 514.31h-23.7197l3.95996 50.29h23.7197
c1.00977 12.8496 2.01953 25.6992 3.03906 38.5488z" />
    <glyph glyph-name="circumflex" unicode="&#x2c6;" horiz-adv-x="349" 
d="M70.3066 841.848h207.429l70.3066 -202.088h-134.779l-39.2383 112.792l-39.2451 -112.792h-134.779z" />
    <glyph glyph-name="caron" unicode="&#x2c7;" horiz-adv-x="217" 
d="M211.736 639.76h-207.436l-70.2998 202.088h134.779l39.2383 -112.792l39.2383 112.792h134.779z" />
    <glyph glyph-name="breve" unicode="&#x2d8;" horiz-adv-x="176" 
d="M288.879 778.722c0 -185.941 -401.878 -185.908 -401.878 -0.000976562v37.3799h203.28v-115.149c7.90137 1.14551 14.0312 8.00293 14.0312 16.208v98.9424h184.566v-37.3799z" />
    <glyph glyph-name="dotaccent" unicode="&#x2d9;" horiz-adv-x="241" 
d="M227.375 727.695c0 -23.8662 -19.959 -44.8096 -50.0293 -56.6719c-16.5439 -6.53418 -36.1465 -10.3135 -57.1641 -10.3135s-40.6201 3.78613 -57.1641 10.3135c-30.0576 11.8623 -50.0176 32.8125 -50.0176 56.6719c0 36.9951 47.9893 66.9854 107.188 66.9854
s107.188 -29.9902 107.188 -66.9854z" />
    <glyph glyph-name="ogonek" unicode="&#x2db;" horiz-adv-x="152" 
d="M303.59 -141.17c-75.1104 -113.98 -408.771 -1.04199 -333.65 112.938c13.6904 20.7803 34.6406 33.3701 58.6104 40.3203l99.9502 33.6904l23.6201 -48.25l-53.5703 -115.46c-3.30957 -5.01953 2.31055 -12.0693 7.28027 -14.6094l55.4102 84.0703z" />
    <glyph glyph-name="ilde" unicode="&#x2dc;" horiz-adv-x="185" 
d="M-17.2617 733.986c58.5586 -31.1152 136.854 42.3438 192.213 74.7988c43.752 25.6514 94.2871 22.2832 119.548 -22.1426l47.8877 -84.2168l-21.7383 -12.7451c-58.5586 31.1152 -136.854 -42.3438 -192.213 -74.7988
c-43.752 -25.6514 -94.2871 -22.2832 -119.548 22.1426l-47.8877 84.2168z" />
    <glyph glyph-name="Deltagreek" unicode="&#x394;" horiz-adv-x="410" 
d="M154.16 654.714h100.828l167.16 -654.677h-435.148zM113.574 100.865h182l-91 356.402z" />
    <glyph glyph-name="Pi" unicode="&#x3a0;" horiz-adv-x="374" 
d="M13 0.0371094l-0.000976562 654.677h347.632v-654.677h-100.828v553.849h-145.975v-553.849h-100.828z" />
    <glyph glyph-name="Sigma" unicode="&#x3a3;" horiz-adv-x="454" 
d="M344.902 399.289c8.0166 -24.1289 16.1943 -48.0791 24.4863 -71.9189c-8.29199 -23.8398 -16.4697 -47.7939 -24.4863 -71.916l-50.8115 -152.886c-4.37891 -13.1689 -4.3584 -26.9512 0 -40.127l0.276367 -0.834961l64.4258 193.85h85.7188v-255.426h-442.512v117.42
l75.4121 209.922l-75.4121 209.922v117.42h442.512v-255.426h-85.7188l-64.4258 193.85l-0.276367 -0.834961c-4.3584 -13.1758 -4.37891 -26.9648 0 -40.1279z" />
    <glyph glyph-name="Omegagreek" unicode="&#x3a9;" horiz-adv-x="498" 
d="M488.48 527.723l-0.000976562 -207.113c0 -75.0557 -78.1201 -119.784 -171.296 -134.24v-8.75h171.296v-177.588h-223.367v605.455c-7.90137 -1.13867 -14.0312 -7.99609 -14.0312 -16.2012v-589.248h-242.081v177.588h190.01v6.26465
c-101.186 11.1416 -190.01 56.7061 -190.01 136.727v207.106c0 185.928 479.48 185.941 479.48 0z" />
    <glyph glyph-name="mugreek" unicode="&#x3bc;" horiz-adv-x="504" 
d="M268.112 467.635l223.376 -0.000976562v-467.598h-182.438v132.146h-7.01953c-8.29883 -50.6768 -29.6934 -86.5742 -57.3057 -109.942v-209.343h-232.725v654.737h242.081v-303.704c7.9082 1.14551 14.0312 7.99609 14.0312 16.208v287.497z" />
    <glyph glyph-name="pi" unicode="&#x3c0;" horiz-adv-x="361" 
d="M30.5664 379.181h-31.5664v100.835h362.256v-100.835h-31.5596v-379.144h-100.835v379.144h-97.4668v-379.144h-100.828v379.144z" />
    <glyph glyph-name="endash" unicode="&#x2013;" horiz-adv-x="509" 
d="M504.443 279.747h-500.443v94.7725h500.443v-94.7725z" />
    <glyph glyph-name="emdash" unicode="&#x2014;" horiz-adv-x="669" 
d="M664.618 279.747h-660.618v94.7725h660.618v-94.7725z" />
    <glyph glyph-name="quoteleft" unicode="&#x2018;" horiz-adv-x="265" 
d="M132.545 505.894c-71.5391 0 -129.538 36.248 -129.545 80.9629c0 72.9268 95.2705 130.191 211.896 136.854v-11.0742c-27.1406 -12.1387 -49.626 -27.6592 -65.625 -45.4971c19.0635 -1.53613 36.8271 -5.66504 52.3613 -11.7949
c108.966 -43.0107 60.7549 -149.45 -69.0869 -149.45z" />
    <glyph glyph-name="quoteright" unicode="&#x2019;" horiz-adv-x="260" 
d="M129.371 723.71c71.54 0 129.539 -36.25 129.539 -80.96c0 -72.9297 -95.2695 -130.189 -211.899 -136.859v11.0801c27.1396 12.1396 49.6299 27.6592 65.6299 45.4893c-19.0596 1.5498 -36.8291 5.66992 -52.3594 11.7998
c-108.97 43.0098 -60.7598 149.45 69.0898 149.45z" />
    <glyph glyph-name="quotesinglbase" unicode="&#x201a;" horiz-adv-x="189" 
d="M158.3 -98.8105h-119.251l6.16992 98.5986h-39.2188v168.218h177.891v-105.658z" />
    <glyph glyph-name="quoteleftreversed" unicode="&#x201b;" horiz-adv-x="137" 
d="M14.5908 574.782l-25.5908 161.165v105.658h177.891v-168.218h-39.2188l6.1709 -98.6055h-119.252z" />
    <glyph glyph-name="quotedblleft" unicode="&#x201c;" horiz-adv-x="552" 
d="M419.51 506.117c-71.5459 0 -129.545 36.2422 -129.545 80.957c0 72.9268 95.2705 130.198 211.896 136.86v-11.0742c-27.1338 -12.1387 -49.626 -27.6592 -65.625 -45.4971c19.0635 -1.54297 36.8271 -5.66602 52.3613 -11.7959
c108.973 -43.0107 60.7549 -149.45 -69.0869 -149.45zM132.545 506.111c-71.5527 0 -129.546 36.249 -129.546 80.9639c0 72.9268 95.2705 130.198 211.896 136.854v-11.0742c-27.1338 -12.1318 -49.6191 -27.6592 -65.624 -45.4971
c19.0635 -1.53613 36.8271 -5.65918 52.3613 -11.7959c108.966 -43.0107 60.748 -149.45 -69.0869 -149.45z" />
    <glyph glyph-name="quotedblright" unicode="&#x201d;" horiz-adv-x="547" 
d="M129.371 723.93c71.5303 0 129.529 -36.2402 129.529 -80.96c0 -72.9297 -95.2695 -130.199 -211.89 -136.859v11.0703c27.1396 12.1396 49.6299 27.6592 65.6299 45.499c-19.0596 1.54004 -36.8291 5.66992 -52.3594 11.7998
c-108.97 43.0098 -60.7598 149.45 69.0898 149.45zM416.32 723.93c71.5498 0 129.55 -36.2402 129.55 -80.96c0 -72.9297 -95.2695 -130.199 -211.899 -136.859v11.0703c27.1396 12.1396 49.6201 27.6592 65.6299 45.499
c-19.0703 1.54004 -36.8301 5.66016 -52.3604 11.7998c-108.97 43.0098 -60.75 149.45 69.0801 149.45z" />
    <glyph glyph-name="quotedblbase" unicode="&#x201e;" horiz-adv-x="552" 
d="M132.371 149.67c71.54 0 129.539 -36.2402 129.539 -80.96c0 -72.9297 -95.2695 -130.199 -211.899 -136.859v11.0801c27.1396 12.1299 49.6299 27.6494 65.6299 45.4893c-19.0596 1.54004 -36.8291 5.66992 -52.3594 11.7998
c-108.97 43.0098 -60.7598 149.45 69.0898 149.45zM419.33 149.67c71.5498 0 129.55 -36.251 129.55 -80.9609c0 -72.9297 -95.2803 -130.199 -211.9 -136.85v11.0703c27.1299 12.1299 49.6201 27.6602 65.6201 45.5c-19.0596 1.53027 -36.8193 5.66016 -52.3594 11.79
c-108.96 43.0098 -60.7402 149.45 69.0898 149.45z" />
    <glyph glyph-name="dagger" unicode="&#x2020;" horiz-adv-x="527" 
d="M212.811 -187.339v600.309h-199.811v94.7725h199.811v333.862h100.828v-333.862h199.805v-94.7725h-199.805v-600.309h-100.828z" />
    <glyph glyph-name="daggerdbl" unicode="&#x2021;" horiz-adv-x="527" 
d="M212.811 -187.339v438.121h-199.811v94.7725h199.811v67.416h-199.811v94.7725h199.811v333.862h100.828v-333.862h199.805v-94.7725h-199.805v-67.417h199.805v-94.7725h-199.805v-438.12h-100.828z" />
    <glyph glyph-name="perthousand" unicode="&#x2030;" horiz-adv-x="814" 
d="M231.315 590.125v-97.0215l61.2393 161.798h242.081l-164.533 -434.678c55.4121 50.7979 196.281 34.3477 196.281 -49.3838v-105.84c0 -104.224 -218.315 -104.23 -218.315 0v97.0156l-61.2393 -161.791h-242.081l164.533 434.69
c-55.4121 -50.8047 -196.281 -34.3613 -196.281 49.3701v105.84c0 104.23 218.315 104.23 218.315 0zM582.497 170.834c0 104.23 218.309 104.23 218.309 0v-105.84c0 -104.224 -218.309 -104.23 -218.309 0v105.84z" />
    <glyph glyph-name="guilsinglleft" unicode="&#x2039;" horiz-adv-x="386" 
d="M290.419 327.372l89.9629 -209.922v-117.42h-277.534v102.546c-24.9111 74.9609 -63.9004 150.191 -89.8486 224.796c25.9482 74.6045 64.9375 149.835 89.8486 224.796v102.546h277.534v-117.42z" />
    <glyph glyph-name="guilsinglright" unicode="&#x203a;" horiz-adv-x="386" 
d="M5 117.45l89.9629 209.922l-89.9629 209.922v117.42h277.534v-102.546c24.9111 -74.9609 63.9004 -150.191 89.8486 -224.796c-25.9482 -74.6045 -64.9375 -149.835 -89.8486 -224.796v-102.546h-277.534v117.42z" />
    <glyph glyph-name="fraction" unicode="&#x2044;" horiz-adv-x="516" 
d="M13 -0.205078c205.335 542.491 165.861 438.187 247.801 654.677h242.081c-205.321 -542.444 -165.867 -438.214 -247.801 -654.677h-242.081z" />
    <glyph glyph-name="Euro" unicode="&#x20ac;" horiz-adv-x="547" 
d="M544.269 470.344h-223.368v135.318c-7.90137 -1.13867 -14.0312 -7.99609 -14.0312 -16.2012v-181.098h158.559v-69.6934h-158.559v-22.4248h158.559v-69.6865h-158.558v-197.123c7.90137 1.13867 14.0312 7.99609 14.0312 16.2012v119.117h223.367v-57.5547
c0 -185.941 -479.48 -185.941 -479.48 0v119.359h-51.7881v69.6934h51.7881v22.4248h-51.7881v69.6934h51.7881v119.528c0 185.941 479.48 185.941 479.48 0v-57.5547z" />
    <glyph glyph-name="trademark" unicode="&#x2122;" horiz-adv-x="796" 
d="M574.171 654.884h210.378v-463.448h-208.19l33.8164 155.196c7.24805 33.2842 8.54102 32.543 0.962891 67.1543l-0.585938 2.66797l-49.0332 -225.024h-32.7314l-49.0332 225.024l-0.579102 -2.66797c-7.54492 -34.6582 -6.30566 -33.8027 0.962891 -67.1543
l33.8164 -155.196h-208.19v368.144h-37.7832v-368.144h-191.774v368.144h-63.2061v95.3047h503.138l25.0322 -174.671h7.96875z" />
    <glyph glyph-name="partialdiff" unicode="&#x2202;" horiz-adv-x="515" 
d="M508.331 527.72l-13.0088 -211.488l-3.15039 -51.2305l-3.00977 -48.9404l-5.48047 -89.04c-11.4404 -185.95 -490.921 -185.95 -479.48 0l2.34961 38.2002l4.99023 81.1602l0.780273 12.6299l1.5498 25.2598l1.45996 23.6797
c5.98047 97.2002 139.87 143.561 264.67 139.131l9.75 158.41c-7.98047 -1.15039 -14.5303 -8.01074 -15.0303 -16.2109l-6.95996 -113.03h-242.08l3.16992 51.4697c11.4404 185.94 490.921 185.94 479.48 0zM254.393 259.012l-0.770508 -12.6299l-4.99023 -81.1504
l-7.12988 -115.98c7.98047 1.13965 14.5205 8 15.0303 16.2002l6.87012 111.65l5.04004 81.9102l7.79004 126.71c-7.98047 -1.13965 -14.5303 -8 -15.0303 -16.21l-5.25 -85.2402z" />
    <glyph glyph-name="radical" unicode="&#x221a;" horiz-adv-x="391" 
d="M109.12 0.0371094l-96.1191 376.463h100.828l45.7051 -179.017l116.746 457.23h100.828l-167.16 -654.677h-100.828z" />
    <glyph glyph-name="infinity" unicode="&#x221e;" horiz-adv-x="448" 
d="M201.914 235.75h-3.91016c-43.4102 -110.24 -188.07 -81.1602 -193.811 81.0498c-0.110352 3.00977 -0.169922 6.04004 -0.189453 9.05957c-0.879883 173.72 149.78 205.43 194 93.1494h3.91016c38.6299 98.0801 242.3 110.561 241.26 -93.1494
c-0.00976562 -3.01953 -0.0693359 -6.0498 -0.179688 -9.05957c-6.71973 -189.93 -202.84 -178.14 -241.08 -81.0498zM231.124 316.8h161.73c8.2002 0 15.0498 6.12988 16.21 14.0303h-161.73c-8.20996 0 -15.0596 -6.12988 -16.21 -14.0303zM163.484 316.8
c8.2002 0 15.0498 6.12988 16.2002 14.0303h-119.62c-8.2002 0 -15.0498 -6.12988 -16.2002 -14.0303h119.62z" />
    <glyph glyph-name="integral" unicode="&#x222b;" horiz-adv-x="482" 
d="M266.024 274.308l-18.2822 -232.051l-3.96094 -50.2861l-3.03809 -38.5586c-7.09375 -90.0098 -83.9541 -136.975 -157.615 -139.144h-180.296c-45.0049 0 -81.832 36.8203 -81.832 81.832c0 100.195 164.493 111.25 190.407 27.0469
c1.6709 -5.42969 6.27148 -9.49121 12.125 -10.3467l5.13281 65.1396l1.10449 14.0312h-28.0703l22.2432 282.337l18.2822 232.051l3.96094 50.2861l3.03809 38.5586c7.09375 90.0098 83.9541 136.975 157.615 139.144h180.296c45.0117 0 81.8389 -36.8271 81.8389 -81.832
c0 -100.195 -164.493 -111.25 -190.407 -27.0469c-1.6709 5.42969 -6.27832 9.49121 -12.1318 10.3467l-5.13281 -65.1396l-1.10449 -14.0312h28.0703z" />
    <glyph glyph-name="approxequal" unicode="&#x2248;" horiz-adv-x="490" 
d="M13 447.554l26.4131 13.9443c71.1484 -34.0449 166.271 46.3252 233.526 81.8389c53.1562 28.0703 114.558 24.3789 145.248 -24.2236l58.1807 -92.1455l-26.4131 -13.9443c-71.1484 34.0449 -166.271 -46.332 -233.526 -81.8389
c-53.1562 -28.0703 -114.564 -24.3789 -145.248 24.2236zM13.0068 227.783l26.4072 13.9443c71.1484 -34.0449 166.271 46.3252 233.526 81.8389c53.1562 28.0635 114.558 24.3789 145.248 -24.2236l58.1807 -92.1455l-26.4131 -13.9443
c-71.1484 34.0449 -166.271 -46.3252 -233.526 -81.8389c-53.1562 -28.0635 -114.564 -24.3789 -145.248 24.2236z" />
    <glyph glyph-name="lessequal" unicode="&#x2264;" horiz-adv-x="380" 
d="M376.172 153.38v-153.162h-336.947v153.162h336.947zM376.172 489.829l-121.091 -148.487l121.091 -148.487h-227.632l-135.54 148.487l135.54 148.487h227.632z" />
    <glyph glyph-name="greaterequal" unicode="&#x2265;" horiz-adv-x="380" 
d="M3 0.216797v153.162h336.947v-153.162h-336.947zM124.091 341.341l-121.091 148.487h227.632l135.54 -148.487l-135.54 -148.487h-227.632z" />
    <glyph glyph-name="lozenge" unicode="&#x25ca;" 
d="M96.5771 654.714h73.9238l83.5771 -327.342l-83.5771 -327.342h-73.9238l-83.5771 327.342zM75.8838 327.372l57.6553 -225.793l57.6553 225.793l-57.6553 225.793z" />
    <glyph glyph-name="y.alt1" unicode="&#xf000;" horiz-adv-x="502" 
d="M266.021 467.22l223.359 0.00390625v-467.92l-375.7 -97.9404c-9.2002 -2.38965 -6.90039 -13.3496 3.44922 -10.6494l15.9199 4.15039l322.83 84.1504l32.6201 8.5l0.889648 -1.48047v-200.58c-84.4902 -27.3896 -188.01 -44.5596 -277.229 -44.5293
c-37.7998 0.00976562 -73.0195 3.60938 -103.14 11.2891c-86.71 22.1201 -139.71 105.89 -69.6104 169.109c22.4297 20.2305 55.3594 30.9004 90.6094 38.79l177.98 46.0596l-1.04004 125.6h-7.01953c-34.1797 -208.67 -290.029 -167.33 -290.029 -28.5703v364.01h242.08
v-303.701c7.90039 1.13965 14.0303 7.98926 14.0303 16.1992v287.51z" />
    <glyph glyph-name="F.alt1" unicode="&#xf001;" horiz-adv-x="422" 
d="M13 0.00292969l-0.00195312 654.678h182.438v-132.152h7.01953c3.58398 21.8594 9.22266 45.4834 18.1416 67.1738c49.3496 120 198.632 90.4814 198.632 -22.0205v-167.309h-168.824v90.4141c-7.9082 -1.14551 -14.0312 -7.99609 -14.0312 -16.208v-105.274h182.855
v-134.631h-182.855v-234.671h-223.374z" />
    <glyph glyph-name="K.alt1" unicode="&#xf002;" horiz-adv-x="504" 
d="M13.0068 501.303l-0.00585938 153.378h223.367v-295.015h14.0312v295.015h242.081v-317.461c0 -109.323 -138.141 -151.755 -200.768 -57.9453h-12.0439c48.2383 -110.131 212.812 -64.9375 212.812 -64.9375v-214.341h-102.371
c-76.1934 0 -139.703 42.4453 -139.703 118.633v139.798c0 8.99316 -2.43848 20.8418 -12.8662 20.8418v-279.271h-224.533v501.306z" />
    <glyph glyph-name="I.alt1" unicode="&#xf003;" horiz-adv-x="267" 
d="M11.0068 654.681l242.073 -0.000976562v-654.677h-242.081v479.406h166.662v7.01953c-155.008 7.92871 -166.601 88.6289 -166.654 168.252z" />
    <glyph glyph-name="M.alt1" unicode="&#xf004;" horiz-adv-x="761" 
d="M471.302 522.528h7.01855c31.8486 208.669 270.271 167.322 270.271 28.5625v-551.087h-242.081v490.784c-7.9082 -1.14551 -14.0312 -7.99609 -14.0312 -16.208v-474.576h-242.081v490.784c-7.9082 -1.14551 -14.0312 -7.99609 -14.0312 -16.208v-474.576h-223.367
v654.677h182.438v-132.152h7.01953c31.8486 208.669 268.844 167.321 268.844 28.5615v-28.5615z" />
    <glyph glyph-name="N.alt1" unicode="&#xf005;" horiz-adv-x="505" 
d="M236.374 0.00292969l-223.375 0.000976562v654.677h182.438v-132.152h7.01953c34.1797 208.669 290.029 167.322 290.029 28.5625v-551.094h-242.081v490.79c-7.9082 -1.14551 -14.0312 -7.99609 -14.0312 -16.208v-474.576z" />
    <glyph glyph-name="A.alt1" unicode="&#xf006;" horiz-adv-x="505" 
d="M491.48 654.681l-0.00292969 -654.678h-223.367v275.554h-14.0312v-275.554h-242.08v551.087c0 70.583 66.2109 115.979 135.763 116.053c67.167 0.0742188 137.474 -30.7305 154.261 -133.243h7.01953v120.781h182.438zM254.078 355.125h14.0312v149.134
c0 8.21191 -6.12305 15.0625 -14.0312 16.208v-165.342z" />
    <glyph glyph-name="A.alt2" unicode="&#xf007;" horiz-adv-x="503" 
d="M489.48 654.681l0.000976562 -654.678h-182.439v120.781h-7.01953c-16.7939 -102.52 -87.0938 -133.324 -154.261 -133.25c-69.5518 0.0810547 -135.763 45.4697 -135.763 116.053v447.503c0 70.583 66.2109 115.979 135.763 116.053
c67.167 0.0742188 137.474 -30.7305 154.261 -133.243h7.01953v120.781h182.438zM266.114 150.417v353.841c0 8.21191 -6.12305 15.0625 -14.0312 16.208v-386.257c7.9082 1.14551 14.0312 7.99609 14.0312 16.208z" />
    <glyph glyph-name="E.alt1" unicode="&#xf008;" horiz-adv-x="482" 
d="M468.92 292.57l-232.55 -0.00195312v-107.39c7.91016 1.58008 14.0303 11.0303 14.0303 22.3604v71h218.52v-278.54h-177.59v166.66h-7.01953c-7.9502 -155.35 -88.9902 -166.659 -168.78 -166.659h-102.53v654.68h102.53c79.7998 0 160.83 -11.2998 168.78 -166.66
h7.01953v166.66h177.59v-278.54h-218.52v71c0 11.3301 -6.12012 20.7803 -14.0303 22.3506v-107.39h232.55v-69.5303z" />
    <glyph glyph-name="F.alt2" unicode="&#xf009;" horiz-adv-x="477" 
d="M250.4 270.21c0 11.3301 -6.12988 20.7891 -14.04 22.3594v-292.57h-223.36v654.68h102.53c79.7998 0 160.83 -11.2998 168.78 -166.66h7.01953v166.66h177.58v-278.54h-218.51v71c0 11.3301 -6.12988 20.7803 -14.04 22.3506v-107.39h232.55v-231.59h-218.51v139.7z" />
    <glyph glyph-name="P.alt1" unicode="&#xf00a;" horiz-adv-x="495" 
d="M236.367 504.26v-144.6h14.0312v160.808c-7.9082 -1.14551 -14.0312 -7.99609 -14.0312 -16.208zM236.367 0.00488281l-223.367 0.000976562v654.677h182.438v-120.788h7.01953c7.57812 46.2783 26.0557 77.9453 50.2324 98.7471
c11.0068 9.47754 24.9844 16.9141 40.6191 22.04c75.332 24.6953 189.31 -4.13574 197.043 -115.877c1.43457 -10.502 2.12793 -21.3135 2.12793 -32.2598v-230.764c0 -166.797 -249.094 -164.433 -249.094 0.612305l-7.01953 -0.290039v-276.099z" />
    <glyph glyph-name="R.alt1" unicode="&#xf00b;" horiz-adv-x="503" 
d="M13 -0.00292969v654.683h182.438v-120.781h7.01953c10.0029 61.0908 39.5615 103.96 90.8516 120.78c75.332 24.6953 189.31 -4.13574 197.043 -115.877c1.43457 -10.502 2.12793 -21.3135 2.12793 -32.2598v-169.322c0 -109.323 -138.141 -151.755 -200.768 -57.9453
h-12.0439c48.2383 -110.131 212.812 -64.9375 212.812 -64.9375v-214.341h-102.371c-76.1934 0 -139.703 42.4453 -139.703 118.633v139.798c0 8.99316 -2.43848 20.8418 -12.8662 20.8418v-279.271h-224.54zM250.399 359.665v160.802
c-7.9082 -1.14551 -14.0312 -7.99609 -14.0312 -16.208v-144.594h14.0312z" />
    <glyph glyph-name="D.alt1" unicode="&#xf00c;" horiz-adv-x="503" 
d="M13 0.00292969l0.000976562 654.678h182.438v-120.781h7.01953c16.7939 102.52 87.0938 133.324 154.261 133.243c69.5518 -0.0742188 135.763 -45.4697 135.763 -116.053v-447.503c0 -70.583 -66.2109 -115.972 -135.763 -116.053
c-67.167 -0.0742188 -137.474 30.7305 -154.261 133.25h-7.01953v-120.781h-182.439zM236.368 504.26v-353.841c0 -8.21191 6.12305 -15.0625 14.0312 -16.208v386.257c-7.9082 -1.14551 -14.0312 -7.99609 -14.0312 -16.208z" />
    <glyph glyph-name="a.alt1" unicode="&#xf00d;" horiz-adv-x="499" 
d="M486.487 468.059v-467.598h-181.266l-1.17188 132.152h-7.01953c-34.1797 -208.669 -290.029 -167.328 -290.029 -28.5615v235.951c0 70.7236 57.332 128.056 128.056 128.056h351.431zM263.119 417.772l-14.0312 -0.000976562v-253.418
c7.9082 1.14551 14.0312 7.99609 14.0312 16.208v237.211z" />
    <glyph glyph-name="LL.dlig" unicode="&#xf00e;" horiz-adv-x="603" 
d="M603.44 0h-590.44v654.677h242.081v-520.046h348.359v-134.631zM281.574 161.125v493.552h242.081v-358.914h79.7842v-134.638h-321.865z" />
    <glyph glyph-name="LE.dlig" unicode="&#xf00f;" horiz-adv-x="615" 
d="M281.581 161.138v493.539h321.865v-134.631h-79.7842v-44.8232h79.7842v-134.631h-79.7842v-44.8232h79.7842v-134.631h-321.865zM603.439 -0h-590.44v654.677h242.081v-520.046h348.359v-134.631z" />
    <glyph glyph-name="LK.dlig" unicode="&#xf010;" horiz-adv-x="789" 
d="M778.603 0h-765.603v654.677h242.081v-520.046h523.521v-134.631zM557.451 654.677l221.152 0.00195312v-145.732l-132.152 -47.9961v-7.01953c67.248 -11.0205 132.152 -49.4512 132.152 -123.894v-168.912h-242.081v233.499
c-7.9082 -1.13867 -14.0312 -8.00293 -14.0312 -16.2012v-217.292h-240.909v493.546h242.08v-198.625h7.01953z" />
    <glyph glyph-name="LT.dlig" unicode="&#xf011;" horiz-adv-x="683" 
d="M281.574 654.677h401.649v-134.638h-79.7842v-358.908h-242.081v358.915h-79.7842v134.631zM683.224 -0h-670.225v654.677h242.081v-520.046h428.144v-134.631z" />
    <glyph glyph-name="LU.dlig" unicode="&#xf012;" horiz-adv-x="772" 
d="M761.068 0h-748.068v654.677h242.081v-520.046h505.987v-134.631zM537.694 654.677h223.368v-359.952c0 -185.941 -479.48 -185.941 -479.48 0v359.952h242.081v-437.723c7.90137 1.13867 14.0312 7.99609 14.0312 16.2012v421.521z" />
    <glyph glyph-name="LI.dlig" unicode="&#xf013;" horiz-adv-x="537" 
d="M523.655 0h-510.656v654.677h242.081v-520.046h268.575v-134.631zM281.574 654.677h242.073v-493.546h-242.081v318.274h166.662v7.01953c-155.008 7.92871 -166.601 88.6289 -166.654 168.252z" />
    <glyph glyph-name="TU.dlig" unicode="&#xf014;" horiz-adv-x="845" 
d="M-8 654.677l604.183 -0.000976562v-605.462c7.90137 1.14551 14.0312 8.00293 14.0312 16.208v589.255h223.367v-527.691c0 -185.941 -479.48 -185.935 -479.48 0v393.054h-40.2354v-520.039h-242.081v520.046h-79.7842v134.631z" />
    <glyph glyph-name="U.alt1" unicode="&#xf015;" horiz-adv-x="504" 
d="M267.112 654.677l223.376 -0.000976562v-654.677h-182.439v132.146h-7.01953c-34.1797 -208.669 -290.029 -167.328 -290.029 -28.5615v551.094h242.081v-490.784c7.9082 1.14551 14.0312 7.99609 14.0312 16.2012v474.583z" />
    <glyph glyph-name="LD.dlig" unicode="&#xf016;" horiz-adv-x="771" 
d="M761.055 309.263c0 -77.4199 -34.584 -148.138 -123.206 -148.138h-356.274v493.553h356.274c88.6221 0 123.206 -70.7168 123.206 -148.137v-197.278zM518.98 211.411v392.979h-14.0312v-392.979h14.0312zM255.081 134.631h505.987v-134.631h-748.068v654.677h242.081
v-520.046z" />
    <glyph glyph-name="LO.dlig" unicode="&#xf017;" horiz-adv-x="770" 
d="M761.062 294.726c0 -185.941 -479.48 -185.941 -479.48 0v232.96c0 185.928 479.48 185.941 479.48 0v-232.96zM523.655 589.255v-372.3c7.90137 1.13867 14.0312 7.99609 14.0312 16.2012v372.3c-7.90137 -1.13867 -14.0312 -7.99609 -14.0312 -16.2012zM255.08 134.631
h505.987v-134.631h-748.068v654.677h242.081v-520.046z" />
    <glyph glyph-name="LA.dlig" unicode="&#xf018;" horiz-adv-x="752" 
d="M255.07 134.86h241.26v-97.7803l-7.34961 -36.8496h-475.98v654.68h242.07v-520.05zM655.35 520.28l103.819 -520.05h-242.08l-7.36035 36.8496v161.41h-13.4004v-37.1299h-217.26l71.6504 358.92h-48.5098v134.63h401.65v-134.63h-48.5098zM509.729 278.061v242.22
h-13.4004v-242.22h13.4004z" />
    <glyph glyph-name="B.alt1" unicode="&#xf019;" horiz-adv-x="498" 
d="M250.399 446.049v73.8691c-7.9082 -1.13867 -14.0312 -7.98926 -14.0312 -16.207v-57.6621h14.0312zM250.399 133.668v232.806h-14.0312v-216.604c0 -8.20508 6.12305 -15.0557 14.0312 -16.2012zM252.689 632.091c65.7861 56.6318 237.291 40.2959 238.072 -105.065
c0.316406 -58.8008 -35.8574 -118.296 -115.574 -130.044v-7.85449c65.6855 -5.42285 117.292 -59.9932 117.292 -127.093v-158.982c0 -70.5889 -66.2109 -115.971 -135.763 -116.052h-1.20605c-66.8037 0.424805 -136.362 42.7012 -153.055 144.607h-7.01953
l-1.17188 -132.152h-181.266v654.677h182.438v-120.781h7.01953c7.57812 46.2715 26.0557 77.9385 50.2324 98.7402z" />
    </font>
</defs>
</svg>
